<svg xmlns="http://www.w3.org/2000/svg" width="889" height="1179" viewBox="0 0 889 1179">
<g>
<path d="M 697.50 733.25 L 696.88 738.00 L 547.19 737.87 C460.87,737.79 395.17,737.35 392.00,736.81 C367.36,732.67 350.33,726.18 331.45,713.73 C299.97,692.97 278.32,660.87 269.81,622.29 C267.78,613.07 267.62,609.07 267.08,553.50 L 266.50 494.50 L 49.50 493.50 L 49.50 412.00 C49.50,409.77 49.50,407.59 49.50,405.46 C49.50,340.23 49.50,326.90 52.80,314.46 C53.76,310.87 54.99,307.34 56.58,302.66 C67.71,269.83 91.07,241.56 121.46,224.13 C136.40,215.57 159.15,207.71 169.41,207.58 C173.05,207.53 175.48,207.04 175.73,206.30 C176.04,205.38 161.66,205.09 113.43,205.03 C78.95,204.99 50.35,204.71 49.87,204.42 C47.33,202.85 50.41,177.42 54.84,163.50 C65.27,130.69 85.03,104.18 113.00,85.50 C122.52,79.14 136.97,71.77 142.53,70.44 C144.16,70.04 145.95,69.40 146.50,69.00 C147.44,68.32 159.02,65.51 170.83,63.09 C178.23,61.57 489.64,61.56 497.17,63.07 C509.55,65.56 520.56,68.30 521.45,69.12 C521.97,69.60 523.03,70.00 523.80,70.00 C526.24,70.00 541.22,76.88 549.50,81.81 C573.88,96.31 594.04,118.66 606.05,144.50 C610.55,154.16 610.63,154.37 613.61,164.50 C617.69,178.37 620.56,200.15 619.54,209.49 C619.23,212.24 618.78,216.98 618.53,220.00 C617.30,234.97 612.56,251.73 605.33,266.69 C600.31,277.09 588.84,294.96 584.75,298.78 L 582.31 301.06 L 458.15 301.02 L 333.99 300.97 L 334.50 493.50 L 475.89 493.75 C579.56,493.94 617.65,493.71 618.64,492.88 C619.76,491.95 620.00,479.42 620.00,421.46 C620.00,382.80 619.73,350.45 619.39,349.58 C618.85,348.17 613.02,348.00 563.81,348.00 C520.28,348.00 508.92,347.74 509.25,346.75 C509.47,346.06 513.90,344.05 519.08,342.28 C540.54,334.96 555.17,326.55 572.29,311.70 L 577.82 306.91 L 636.40 306.98 C698.79,307.05 714.76,307.74 727.50,310.93 C759.35,318.91 786.59,336.18 806.45,361.00 C824.45,383.49 835.33,410.93 837.66,439.74 C838.05,444.48 837.81,446.33 836.66,447.49 C835.34,448.81 827.05,449.00 772.07,449.00 C736.56,449.00 709.00,449.38 709.00,449.88 C709.00,451.96 712.18,453.24 716.06,452.72 C718.59,452.38 721.12,452.70 722.80,453.58 C724.29,454.35 726.66,454.99 728.08,454.99 C732.18,455.00 748.69,460.84 758.50,465.75 C788.45,480.74 812.24,505.66 825.55,536.00 C834.08,555.43 838.00,573.94 838.00,594.73 C838.00,607.51 837.59,610.97 834.32,625.50 C829.66,646.27 819.13,668.39 806.76,683.38 L 804.38 686.26 L 800.11 683.57 C792.36,678.68 781.22,674.85 772.38,674.04 C762.81,673.17 750.60,674.17 743.72,676.38 C729.28,681.03 714.52,692.78 706.77,705.81 C702.88,712.35 698.56,725.13 697.50,733.25 Z" fill="rgb(0,154,56)"/>
<path d="M 823.77 773.57 L 823.50 801.50 L 792.50 801.61 C775.45,801.67 760.15,801.55 758.50,801.34 C732.55,798.10 711.14,775.85 708.37,749.25 C707.68,742.59 708.16,741.90 711.44,744.89 C715.97,749.03 764.17,779.00 766.26,778.97 C767.49,778.96 771.07,777.27 774.21,775.22 C777.35,773.17 786.55,767.22 794.65,762.00 C802.76,756.78 812.30,750.58 815.87,748.22 C819.43,745.87 822.73,744.33 823.19,744.79 C823.65,745.25 823.91,758.20 823.77,773.57 ZM 716.33 737.61 C708.57,742.70 708.00,742.79 708.00,738.92 C708.00,737.11 708.73,732.67 709.63,729.06 C714.86,708.03 730.64,692.25 752.20,686.51 C760.73,684.24 775.69,684.89 784.33,687.91 C800.68,693.62 815.11,707.77 820.35,723.22 C822.68,730.07 824.38,740.02 823.39,740.99 C822.54,741.83 817.11,738.56 782.15,716.19 C774.25,711.13 767.02,707.00 766.08,707.00 C764.67,707.00 738.09,723.35 716.33,737.61 ZM 837.43 446.27 L 837.50 450.50 L 778.60 451.00 C730.42,451.41 719.97,451.73 721.24,452.79 C721.40,452.92 721.63,453.06 721.93,453.20 C720.31,452.62 718.18,452.43 716.06,452.72 C712.18,453.24 709.00,451.96 709.00,449.88 C709.00,449.38 736.56,449.00 772.07,449.00 C827.05,449.00 835.34,448.81 836.66,447.49 C836.99,447.16 837.24,446.77 837.43,446.27 ZM 619.45 350.01 L 558.83 349.76 C496.58,349.50 488.71,348.97 504.24,346.10 C508.58,345.29 512.92,344.24 517.24,342.94 C512.89,344.52 509.45,346.15 509.25,346.75 C508.92,347.74 520.28,348.00 563.81,348.00 C613.02,348.00 618.85,348.17 619.39,349.58 C619.41,349.63 619.43,349.78 619.45,350.01 ZM 645.65 1144.56 C645.80,1145.08 644.88,1146.78 643.60,1148.34 C641.66,1150.72 641.18,1150.91 640.65,1149.54 C640.31,1148.63 640.76,1146.78 641.65,1145.41 C643.22,1143.01 645.08,1142.62 645.65,1144.56 ZM 733.21 456.00 C742.14,458.13 751.73,462.01 761.16,467.12 C760.28,466.65 759.39,466.20 758.50,465.75 C751.15,462.07 740.05,457.88 733.21,456.00 ZM 826.77 649.10 C821.55,662.26 815.02,673.37 806.76,683.38 C814.47,674.04 821.46,661.93 826.77,649.10 ZM 538.87 334.27 C550.46,328.46 561.70,320.89 572.29,311.70 C560.96,321.53 550.72,328.54 538.87,334.27 ZM 836.30 572.10 C836.52,573.24 836.73,574.39 836.94,575.56 C837.45,578.47 837.77,583.50 837.90,589.02 C837.69,583.25 837.17,577.63 836.30,572.10 ZM 826.01 393.39 C830.62,403.85 833.94,414.68 835.76,425.32 C833.75,414.30 830.47,403.59 826.01,393.39 ZM 794.23 491.05 C798.75,495.35 802.89,499.84 806.48,504.44 C807.66,505.95 808.80,507.45 809.90,508.95 C805.18,502.57 799.94,496.58 794.23,491.05 ZM 722.75 453.55 C724.14,454.09 726.18,454.64 728.15,454.96 C728.27,455.00 728.17,454.99 728.08,454.99 C726.66,454.99 724.29,454.35 722.80,453.58 C722.79,453.57 722.77,453.56 722.75,453.55 ZM 815.26 516.76 C820.23,524.49 824.28,532.37 827.61,540.88 C826.95,539.26 826.27,537.63 825.55,536.00 C822.62,529.31 819.17,522.88 815.26,516.76 ZM 837.59 607.53 C837.43,609.87 837.21,611.83 836.95,613.17 C836.61,614.90 836.26,616.59 835.90,618.26 C836.77,614.01 837.29,610.82 837.59,607.53 Z" fill="rgb(16,159,74)"/>
<path d="M 775.47 766.58 C771.21,768.36 760.51,768.36 756.42,766.58 C751.97,764.64 746.17,759.25 744.04,755.07 C741.81,750.70 740.57,743.23 741.43,739.34 C742.03,736.62 742.33,736.49 748.58,736.19 C754.68,735.91 769.39,738.21 772.93,740.00 C773.79,740.44 776.59,741.83 779.15,743.10 C781.71,744.36 785.28,746.60 787.08,748.07 C790.20,750.61 790.29,750.88 789.07,753.84 C787.47,757.70 780.02,764.68 775.47,766.58 ZM 790.02 734.69 C790.65,736.78 791.01,740.18 790.83,742.23 L 790.50 745.96 L 787.30 743.45 C785.54,742.06 782.07,740.03 779.59,738.94 C777.11,737.84 774.81,736.50 774.47,735.96 C774.14,735.41 773.48,735.21 773.00,735.50 C772.53,735.79 770.12,735.34 767.64,734.49 C764.89,733.56 759.39,732.94 753.56,732.91 C742.63,732.85 742.06,732.28 747.16,726.48 C752.21,720.72 757.27,718.61 766.00,718.61 C771.70,718.61 774.47,719.11 777.57,720.73 C782.89,723.51 788.59,729.90 790.02,734.69 ZM 655.72 1160.75 C656.03,1161.63 654.88,1161.99 651.83,1161.97 C646.13,1161.93 644.00,1160.58 644.00,1157.01 C644.00,1153.83 645.78,1152.03 646.99,1153.98 C647.41,1154.66 649.82,1155.45 652.34,1155.74 C656.18,1156.17 656.80,1156.52 656.10,1157.88 C655.64,1158.77 655.47,1160.06 655.72,1160.75 ZM 632.37 1158.48 C631.67,1160.30 623.00,1160.98 623.00,1159.21 C623.00,1158.25 622.01,1158.09 619.25,1158.59 C617.17,1158.96 615.86,1158.88 616.31,1158.41 C616.76,1157.93 620.67,1157.46 625.00,1157.34 C631.22,1157.18 632.78,1157.42 632.37,1158.48 ZM 643.44 1148.54 C642.39,1149.94 641.52,1151.00 641.42,1151.00 C640.02,1151.00 639.50,1141.43 640.85,1140.59 C641.32,1140.30 642.72,1141.13 643.95,1142.44 L 644.93 1143.49 C644.09,1142.98 642.79,1143.67 641.65,1145.41 C640.76,1146.78 640.31,1148.63 640.65,1149.54 C641.17,1150.88 641.63,1150.73 643.44,1148.54 ZM 765.00 754.00 C765.00,754.55 765.45,755.00 766.00,755.00 C766.55,755.00 767.00,754.55 767.00,754.00 C767.00,753.45 766.55,753.00 766.00,753.00 C765.45,753.00 765.00,753.45 765.00,754.00 ZM 645.65 1144.56 C645.59,1144.35 645.51,1144.17 645.42,1144.01 L 646.19 1144.83 L 644.67 1146.88 C645.35,1145.83 645.75,1144.92 645.65,1144.56 Z" fill="rgb(44,57,97)"/>
<path d="M 780.00 262.50 C778.69,264.08 774.00,264.60 774.00,263.16 C774.00,262.69 775.53,257.86 777.40,252.41 C780.79,242.53 780.81,242.50 784.34,242.19 C786.93,241.97 788.12,242.36 788.82,243.69 C790.73,247.32 795.79,262.88 795.24,263.43 C794.11,264.55 790.22,263.97 789.00,262.50 C788.32,261.67 786.29,261.00 784.50,261.00 C782.71,261.00 780.68,261.67 780.00,262.50 ZM 737.00 261.58 C737.00,263.45 736.47,264.00 734.67,264.00 C733.38,264.00 732.03,263.70 731.67,263.33 C731.30,262.97 731.00,258.02 731.00,252.33 L 731.00 242.00 L 738.33 242.00 C742.37,242.00 745.95,242.28 746.30,242.63 C747.88,244.21 744.80,247.00 741.46,247.00 C738.67,247.00 738.00,247.38 738.00,249.00 C738.00,250.43 738.67,251.00 740.33,251.00 C741.62,251.00 742.95,251.28 743.30,251.63 C744.41,252.74 742.00,256.00 740.07,256.00 C738.03,256.00 737.00,257.87 737.00,261.58 ZM 766.81 259.81 C766.57,262.64 766.02,263.57 764.46,263.79 C763.34,263.95 762.10,263.77 761.71,263.38 C761.32,262.99 761.00,258.02 761.00,252.33 L 761.00 242.00 L 768.57 242.00 C775.25,242.00 776.11,242.21 775.81,243.75 C775.58,244.96 774.25,245.65 771.49,246.00 C768.33,246.40 767.50,246.92 767.50,248.50 C767.50,249.95 768.27,250.59 770.31,250.82 C774.20,251.27 773.79,255.35 769.81,255.81 C767.49,256.08 767.07,256.64 766.81,259.81 ZM 755.50 242.50 L 755.50 263.50 L 752.74 263.82 C749.15,264.23 748.86,263.27 749.21,251.92 L 749.50 242.50 ZM 648.32 1145.00 C647.25,1145.00 645.63,1145.99 644.32,1147.40 C644.44,1147.22 644.56,1147.05 644.67,1146.88 L 646.19 1144.83 L 645.42 1144.01 C645.28,1143.78 645.12,1143.60 644.93,1143.49 L 643.95 1142.44 C642.88,1141.31 641.69,1140.53 641.08,1140.53 C642.10,1137.67 643.82,1135.16 645.84,1134.13 C647.63,1133.21 656.01,1137.52 656.75,1139.74 C657.25,1141.24 651.24,1144.99 648.32,1145.00 ZM 643.86 1172.11 C641.89,1173.36 641.00,1173.20 640.47,1171.50 C640.21,1170.68 639.81,1169.38 639.58,1168.62 C639.35,1167.86 639.64,1166.76 640.23,1166.17 C640.82,1165.58 641.27,1163.72 641.22,1162.05 C641.16,1160.03 641.62,1159.00 642.57,1159.00 C643.42,1159.00 644.00,1158.01 644.00,1156.56 C644.00,1155.06 644.53,1153.91 645.19,1153.44 C644.52,1153.97 644.00,1155.29 644.00,1157.01 C644.00,1160.58 646.13,1161.93 651.83,1161.97 C653.86,1161.98 655.05,1161.83 655.53,1161.46 C655.05,1161.84 653.86,1162.02 651.83,1162.03 C648.39,1162.06 647.13,1162.57 645.69,1164.55 C644.54,1166.13 644.12,1167.81 644.55,1169.14 C644.96,1170.46 644.70,1171.57 643.86,1172.11 ZM 632.37 1158.48 C632.78,1157.42 631.22,1157.18 625.00,1157.34 C620.67,1157.46 616.76,1157.93 616.31,1158.41 C616.01,1158.73 616.51,1158.87 617.51,1158.81 L 615.50 1159.14 L 618.77 1156.07 C622.70,1152.38 625.26,1152.03 624.81,1155.25 C624.53,1157.32 624.84,1157.47 628.74,1157.18 C633.68,1156.81 633.81,1158.50 629.06,1161.30 C624.77,1163.84 623.00,1163.40 623.00,1159.79 C623.00,1159.14 622.92,1158.73 622.61,1158.49 C622.88,1158.64 623.00,1158.88 623.00,1159.21 C623.00,1160.98 631.67,1160.30 632.37,1158.48 ZM 765.00 754.00 C765.00,753.45 765.45,753.00 766.00,753.00 C766.55,753.00 767.00,753.45 767.00,754.00 C767.00,754.55 766.55,755.00 766.00,755.00 C765.45,755.00 765.00,754.55 765.00,754.00 ZM 640.08 1145.62 C640.12,1146.70 640.23,1147.80 640.39,1148.71 C640.14,1147.77 640.05,1146.71 640.08,1145.62 Z" fill="rgb(52,126,152)"/>
<path d="M 159.94 208.96 C164.12,207.63 166.00,206.67 165.45,206.12 C165.12,205.79 140.43,205.30 110.00,205.03 C111.14,205.03 112.28,205.03 113.43,205.03 C161.66,205.09 176.04,205.38 175.73,206.30 C175.48,207.04 173.05,207.53 169.41,207.58 C166.90,207.61 163.64,208.11 159.94,208.96 ZM 50.96 204.51 L 107.17 205.00 C108.12,205.01 109.06,205.02 110.00,205.03 C80.72,204.98 56.33,204.76 50.96,204.51 ZM 52.37 173.00 C50.79,180.29 49.60,188.38 49.15,194.54 C49.30,188.40 50.46,180.89 52.37,173.00 ZM 121.46 224.13 C124.69,222.28 128.28,220.47 132.03,218.75 C115.30,226.54 100.23,237.53 87.68,250.92 C73.81,265.76 63.10,283.43 56.58,302.66 C63.17,283.22 73.91,265.62 87.68,250.92 C97.49,240.43 108.87,231.35 121.46,224.13 ZM 76.04 120.98 C69.17,130.49 63.45,140.92 58.91,152.18 C60.67,147.65 62.60,143.29 64.66,139.31 C67.94,132.97 71.76,126.83 76.04,120.98 ZM 76.04 120.98 C86.01,107.16 98.39,95.26 113.00,85.50 C98.77,95.00 86.12,107.20 76.04,120.98 ZM 49.15 194.54 C49.12,195.75 49.13,196.90 49.19,198.00 L 49.47 203.88 C48.88,202.54 48.82,199.06 49.15,194.54 ZM 58.91 152.18 C56.27,158.96 54.04,166.12 52.37,173.00 C53.11,169.56 53.95,166.30 54.84,163.50 C56.07,159.64 57.42,155.86 58.91,152.18 ZM 159.94 208.96 C158.42,209.44 156.61,209.97 154.50,210.54 C150.79,211.55 147.13,212.70 143.53,214.01 C149.33,211.85 155.03,210.09 159.94,208.96 ZM 143.53 214.01 C139.67,215.44 135.77,217.04 132.03,218.75 C135.78,217.01 139.62,215.42 143.53,214.01 ZM 49.47 203.88 C49.58,204.14 49.72,204.32 49.87,204.42 C49.92,204.45 50.29,204.48 50.96,204.51 L 49.50 204.50 L 49.47 203.88 Z" fill="rgb(35,176,132)"/>
<path d="M 733.21 456.00 C731.12,455.42 729.43,455.06 728.37,455.00 C726.18,454.64 724.14,454.09 722.75,453.55 C722.50,453.42 722.22,453.31 721.93,453.20 C721.63,453.06 721.40,452.92 721.24,452.79 C720.73,452.36 722.15,452.05 727.25,451.81 C726.72,452.51 728.40,455.00 729.43,455.00 C730.34,455.00 732.69,455.64 735.76,456.65 C734.90,456.41 734.05,456.20 733.21,456.00 ZM 731.73 451.64 C740.26,451.38 754.84,451.20 778.60,451.00 L 837.50 450.50 L 782.50 451.02 C759.83,451.24 740.20,451.48 731.73,451.64 ZM 75.54 121.67 C75.71,121.44 75.87,121.21 76.04,120.98 Z" fill="rgb(53,187,167)"/>
<path d="M 0.00 0.00 L 889.00 0.00 L 889.00 1179.00 L 0.00 1179.00 ZM 760.50 807.95 C764.90,808.36 782.06,808.76 798.63,808.85 C824.08,808.98 828.94,808.77 829.98,807.53 C830.91,806.40 831.09,797.25 830.75,768.78 C830.30,731.98 830.26,731.40 827.73,724.00 C823.88,712.73 819.38,705.34 811.56,697.44 C804.50,690.31 795.26,684.38 787.50,681.99 C785.30,681.31 783.07,680.36 782.55,679.88 C780.90,678.35 787.50,678.91 789.56,680.47 C790.63,681.28 792.04,681.95 792.70,681.97 C793.36,681.99 795.90,683.35 798.34,685.00 C800.79,686.65 803.71,688.00 804.82,688.00 C807.33,688.00 810.00,685.46 810.00,683.08 C810.00,682.11 810.96,680.45 812.13,679.40 C814.05,677.69 815.31,675.99 821.25,667.12 C822.21,665.68 823.75,662.47 824.67,660.00 C825.59,657.53 826.88,654.83 827.54,654.00 C830.64,650.15 838.16,624.19 839.58,612.50 C841.22,598.87 840.47,576.73 838.04,567.00 C836.64,561.45 833.94,550.86 832.79,546.50 C830.39,537.35 812.46,505.00 809.79,505.00 C809.33,505.00 807.62,502.86 805.98,500.25 C804.34,497.64 801.76,494.79 800.25,493.92 C798.74,493.06 796.98,491.30 796.34,490.03 C795.06,487.50 790.23,483.00 788.78,483.00 C788.28,483.00 785.69,480.76 783.03,478.03 C779.80,474.71 774.57,471.16 767.34,467.37 C761.38,464.24 755.38,461.08 754.00,460.35 C752.62,459.61 751.05,459.01 750.50,459.00 C748.70,458.98 737.46,454.05 739.00,453.95 C740.02,453.89 739.85,453.58 738.50,453.00 C737.06,452.38 738.09,452.12 742.19,452.07 C745.32,452.03 748.16,452.45 748.50,453.00 C748.84,453.55 750.02,454.00 751.12,454.00 C752.27,454.00 752.84,453.55 752.46,452.94 C752.01,452.20 764.94,451.94 795.51,452.08 C831.85,452.24 839.37,452.04 840.15,450.89 C841.39,449.05 839.77,428.71 838.04,424.50 C836.63,421.06 834.00,410.14 834.01,407.77 C834.02,404.91 828.16,390.55 826.03,388.24 C825.15,387.28 823.89,384.66 823.23,382.41 C822.56,380.16 820.88,376.78 819.50,374.91 C818.11,373.03 816.44,370.26 815.77,368.75 C815.11,367.24 814.25,366.00 813.86,366.00 C813.48,366.00 812.15,364.36 810.91,362.35 C807.34,356.57 796.38,344.79 789.66,339.50 C787.56,337.85 783.97,334.91 781.67,332.97 C770.45,323.47 750.28,314.07 728.50,308.18 C723.05,306.70 716.74,305.86 709.00,305.55 C705.42,305.42 699.35,304.79 695.50,304.17 C690.91,303.42 671.03,303.05 637.65,303.09 C609.69,303.11 586.61,302.94 586.36,302.70 C585.62,301.96 588.25,297.00 589.41,296.96 C590.72,296.91 595.00,290.42 595.00,288.49 C595.00,287.73 595.82,286.53 596.83,285.81 C598.61,284.53 606.99,270.96 607.01,269.33 C607.01,268.87 607.71,267.16 608.57,265.52 C609.42,263.88 611.25,259.60 612.63,256.02 C614.01,252.43 615.79,247.93 616.59,246.00 C618.09,242.40 618.73,238.99 619.45,230.77 C619.67,228.17 620.17,225.54 620.54,224.93 C621.55,223.31 621.40,187.45 620.38,185.86 C619.90,185.11 619.45,182.48 619.37,180.00 C619.17,173.23 616.40,162.46 613.02,155.23 C611.36,151.68 610.00,147.89 610.00,146.81 C610.00,144.66 603.25,132.63 598.80,126.86 C597.26,124.85 596.00,122.67 596.00,122.01 C596.00,119.87 583.80,105.03 580.86,103.60 C579.84,103.10 579.00,102.12 579.00,101.42 C579.00,100.72 577.76,99.23 576.25,98.12 C574.74,97.00 572.15,94.93 570.50,93.51 C564.41,88.27 560.34,85.28 554.00,81.38 C545.77,76.32 527.01,67.27 522.18,66.03 C520.15,65.52 514.22,63.91 509.00,62.47 C502.25,60.61 496.03,59.69 487.50,59.31 C472.62,58.65 195.81,58.66 180.00,59.32 C172.22,59.65 166.24,60.50 161.50,61.96 C157.65,63.15 152.25,64.58 149.50,65.13 C146.75,65.69 142.17,67.23 139.31,68.57 C136.46,69.91 133.68,71.00 133.14,71.00 C129.88,71.00 103.62,86.95 102.63,89.53 C102.31,90.37 101.19,91.37 100.14,91.77 C97.82,92.66 89.00,100.69 89.00,101.92 C89.00,102.41 87.42,103.73 85.50,104.87 C83.57,106.00 80.67,109.09 79.05,111.72 C77.43,114.35 74.70,118.31 72.98,120.53 C67.13,128.08 57.66,146.25 54.50,156.00 C53.52,159.02 52.11,163.20 51.36,165.27 C49.27,171.07 47.79,177.99 47.44,183.56 C47.27,186.34 47.05,189.04 46.95,189.56 C46.85,190.08 46.82,193.99 46.88,198.25 C46.97,203.83 47.36,206.00 48.28,206.00 C48.90,206.00 49.22,205.26 49.28,203.30 C49.34,203.53 49.40,203.72 49.47,203.88 L 49.50 204.50 L 50.96 204.51 C51.86,204.55 53.27,204.59 55.15,204.63 C64.58,204.83 85.59,204.98 110.00,205.03 C128.59,205.20 145.04,205.44 155.10,205.68 C154.26,205.94 153.56,206.25 153.12,206.63 C152.07,207.53 146.22,210.17 140.12,212.50 C134.02,214.82 128.35,217.29 127.52,217.98 C126.69,218.67 123.20,220.56 119.76,222.19 C110.70,226.47 103.22,231.65 97.38,237.70 C94.56,240.61 91.75,243.00 91.13,243.00 C90.51,243.00 90.00,243.40 90.00,243.88 C90.00,244.37 87.03,247.83 83.39,251.57 C77.51,257.63 73.83,262.33 70.41,268.14 C69.81,269.15 68.60,270.78 67.72,271.76 C66.84,272.73 64.70,276.67 62.97,280.52 C61.24,284.36 58.29,290.76 56.41,294.75 C54.54,298.74 53.00,302.66 53.00,303.46 C53.00,304.25 52.60,305.94 52.11,307.20 C49.88,312.97 46.63,328.94 46.57,334.43 C46.54,337.77 46.62,375.19 46.75,417.59 L 47.00 494.68 L 49.55 495.84 C51.43,496.70 79.65,497.00 157.55,497.00 L 263.00 497.00 L 263.07 544.25 C263.11,570.24 263.57,595.10 264.10,599.50 C264.62,603.90 265.43,610.88 265.90,615.00 C266.38,619.12 267.22,623.85 267.77,625.50 C268.33,627.15 269.36,631.20 270.06,634.50 C270.75,637.80 271.89,641.62 272.57,643.00 C273.26,644.38 274.80,647.97 276.00,651.00 C277.20,654.03 279.94,659.50 282.09,663.17 C284.24,666.85 286.00,670.31 286.00,670.86 C286.00,671.42 287.80,673.96 290.00,676.50 C292.20,679.04 294.00,681.74 294.00,682.50 C294.00,684.81 313.80,705.02 320.00,709.03 C322.48,710.64 324.95,712.31 325.50,712.75 C334.13,719.72 354.56,730.48 363.00,732.52 C366.02,733.25 370.46,734.57 372.87,735.46 C375.27,736.34 378.87,737.12 380.87,737.17 C382.86,737.23 385.11,737.76 385.86,738.35 C386.61,738.94 390.77,739.48 395.11,739.55 C399.45,739.62 403.19,739.86 403.42,740.09 C404.30,740.97 697.44,739.96 698.33,739.07 C698.83,738.57 699.42,736.66 699.63,734.84 C699.84,733.02 700.27,730.73 700.57,729.77 C700.88,728.81 701.35,726.78 701.61,725.26 C703.03,717.14 705.25,711.83 708.74,708.18 C709.43,707.45 710.00,705.95 710.00,704.84 C710.00,702.78 726.07,686.00 728.05,686.00 C728.61,686.00 730.30,685.13 731.79,684.06 C735.48,681.41 751.47,676.20 758.37,675.39 C763.57,674.77 765.01,674.01 762.93,673.75 C766.17,673.68 769.40,673.77 772.38,674.04 C773.86,674.18 775.41,674.40 777.00,674.70 C775.76,674.49 774.59,674.35 773.50,674.28 C766.68,673.85 766.57,673.88 769.36,675.42 C770.94,676.29 773.64,677.01 775.36,677.02 C778.60,677.03 781.87,678.47 780.89,679.44 C780.59,679.75 777.67,679.50 774.42,678.89 C763.35,676.82 748.73,679.42 736.00,685.73 C730.42,688.50 726.46,691.52 720.50,697.53 C703.34,714.88 697.31,738.64 704.14,762.00 C706.21,769.08 712.52,780.24 717.71,785.97 C729.61,799.12 743.81,806.41 760.50,807.95 ZM 714.84 285.11 C720.03,286.80 724.04,286.93 763.00,286.71 C804.79,286.48 805.60,286.44 811.25,284.17 C818.24,281.36 826.65,273.90 830.22,267.33 C840.22,248.96 833.21,226.14 814.50,216.17 L 809.50 213.50 L 821.79 213.22 C831.25,213.00 834.21,212.61 834.63,211.53 C835.51,209.22 833.04,199.32 830.38,194.57 C827.06,188.63 821.32,183.05 814.84,179.46 C809.61,176.56 809.14,176.49 792.81,176.17 L 776.12 175.83 L 775.05 179.82 C774.40,182.24 774.24,187.23 774.64,192.48 C775.20,199.70 775.78,201.86 778.14,205.33 C779.69,207.62 780.97,210.11 780.98,210.85 C780.99,211.59 781.91,213.48 783.03,215.05 C784.15,216.62 786.22,220.41 787.62,223.49 C787.73,223.71 787.83,223.93 787.93,224.15 C789.14,226.79 789.95,228.54 789.43,229.70 C788.41,232.01 782.20,232.00 763.71,232.00 C762.95,232.00 762.18,232.00 761.38,232.00 C741.01,232.00 734.97,231.72 734.88,230.75 C734.63,228.07 735.29,226.18 739.68,217.00 C742.18,211.77 744.88,205.70 745.68,203.50 C747.36,198.92 748.61,182.57 747.60,178.54 L 746.92 175.83 L 730.21 176.18 C714.16,176.51 713.29,176.63 708.14,179.33 C698.84,184.21 691.71,192.93 689.11,202.60 C687.83,207.36 687.36,250.51 688.53,256.47 C689.77,262.84 692.67,268.42 697.54,273.83 C702.96,279.86 707.21,282.63 714.84,285.11 ZM 613.88 1176.12 C614.49,1176.33 661.83,1176.48 719.06,1176.46 C805.59,1176.43 823.26,1176.20 823.96,1175.07 C824.43,1174.30 825.68,1173.94 826.84,1174.25 C828.11,1174.58 829.53,1174.07 830.58,1172.91 C832.08,1171.26 832.25,1168.44 832.08,1148.38 C831.86,1122.94 831.59,1121.89 824.82,1119.99 C822.38,1119.31 786.73,1118.98 719.89,1119.03 C617.49,1119.10 611.00,1119.32 611.00,1122.66 C611.00,1123.31 610.53,1123.99 609.96,1124.18 C609.29,1124.40 608.91,1132.77 608.88,1148.18 C608.84,1170.36 608.96,1171.96 610.79,1173.79 C611.87,1174.87 613.26,1175.92 613.88,1176.12 ZM 689.14 169.08 C689.85,169.53 703.05,169.80 718.46,169.69 C745.09,169.51 746.49,169.41 746.84,167.60 C747.04,166.56 746.29,164.07 745.17,162.08 C742.98,158.19 740.52,148.08 739.49,138.72 C739.14,135.54 738.21,131.71 737.43,130.22 C736.65,128.72 736.01,126.86 736.01,126.07 C736.00,125.29 735.45,123.13 734.78,121.28 C733.83,118.64 733.83,117.50 734.78,115.97 C735.45,114.90 736.00,111.43 736.00,108.25 C736.00,94.66 747.62,83.64 762.00,83.58 C769.93,83.56 775.03,85.21 779.76,89.36 C784.16,93.21 789.00,100.64 789.00,103.54 C789.00,104.72 789.92,106.52 791.05,107.54 C792.81,109.14 793.01,110.16 792.48,114.95 C791.67,122.31 789.37,132.01 786.54,140.00 C785.28,143.57 783.92,148.52 783.53,151.00 C783.14,153.48 781.87,158.34 780.70,161.81 C778.87,167.25 778.78,168.25 780.04,169.05 C781.66,170.07 826.95,170.36 831.88,169.38 L 835.00 168.75 L 835.00 150.48 C835.00,134.75 834.78,132.13 833.42,131.61 C832.55,131.27 826.81,130.99 820.67,130.98 L 809.50 130.96 L 814.95 127.78 C822.63,123.30 827.71,117.84 831.28,110.22 C833.99,104.43 834.36,102.56 834.41,94.51 C834.46,86.17 834.18,84.81 831.20,78.76 C827.78,71.80 821.06,64.85 814.88,61.87 C806.95,58.04 804.59,57.89 759.50,58.20 L 715.50 58.50 L 709.50 61.30 C706.20,62.84 701.57,65.99 699.20,68.30 C693.43,73.94 688.05,83.75 687.31,90.00 L 686.72 95.00 L 698.86 95.00 C705.54,95.00 711.00,95.34 711.00,95.75 C711.00,96.16 708.69,98.07 705.87,99.99 C698.96,104.70 692.91,111.66 690.56,117.60 C688.89,121.82 688.56,125.68 688.22,145.39 C687.92,163.45 688.11,168.45 689.14,169.08 ZM 741.56 909.78 L 743.11 912.00 L 777.81 911.99 C799.77,911.99 813.97,911.59 816.50,910.90 C824.74,908.65 829.49,902.70 832.00,891.51 C833.73,883.77 830.70,871.76 825.93,867.44 C823.59,865.32 823.48,863.67 825.57,861.94 C827.93,859.98 830.62,854.14 831.87,848.25 C834.00,838.19 828.61,825.84 819.96,821.00 L 815.50 818.50 L 779.04 818.18 C745.17,817.89 742.48,817.99 741.29,819.62 C740.28,820.99 740.00,830.93 740.00,864.47 C740.00,901.85 740.21,907.85 741.56,909.78 ZM 741.57 1006.43 C742.85,1007.70 745.72,1008.00 756.87,1008.00 C766.22,1008.00 770.98,1007.62 771.80,1006.80 C772.46,1006.14 773.00,1003.44 773.00,1000.80 C773.00,998.16 773.23,996.00 773.52,996.00 C773.80,996.00 776.39,997.56 779.27,999.47 C787.53,1004.96 792.45,1006.05 811.50,1006.62 C822.33,1006.94 829.04,1006.76 830.00,1006.10 C831.23,1005.26 831.49,1002.07 831.50,988.29 L 831.50 971.50 L 828.00 971.21 C822.02,970.72 821.44,970.24 823.74,967.72 C826.68,964.52 830.53,956.33 831.96,950.25 C835.08,937.03 825.59,921.37 811.21,915.98 C806.35,914.16 803.38,914.00 774.53,914.00 C747.33,914.00 742.93,914.21 741.57,915.57 C740.19,916.95 740.00,922.46 740.00,961.00 C740.00,999.54 740.19,1005.05 741.57,1006.43 ZM 756.00 1101.42 C760.40,1103.92 760.94,1103.98 780.05,1103.99 C793.94,1104.00 799.95,1103.65 800.80,1102.80 C801.50,1102.10 802.00,1098.73 802.00,1094.68 L 802.00 1087.76 L 808.79 1094.13 C813.44,1098.49 817.19,1101.05 820.68,1102.25 C827.07,1104.45 831.59,1104.51 832.39,1102.42 C833.52,1099.48 833.05,1040.59 831.85,1034.63 C830.38,1027.27 825.57,1019.31 820.50,1015.83 C814.06,1011.41 808.94,1010.80 781.50,1011.17 C758.45,1011.47 756.23,1011.66 753.01,1013.55 C748.11,1016.43 743.53,1022.85 741.52,1029.67 C740.57,1032.88 739.35,1036.45 738.80,1037.62 C736.75,1041.97 738.33,1044.04 744.92,1045.68 L 748.35 1046.53 L 745.29 1050.02 C739.18,1056.98 736.21,1067.98 738.08,1076.69 C740.52,1088.00 746.23,1095.87 756.00,1101.42 ZM 816.27 904.94 C812.13,906.09 748.79,906.45 747.67,905.33 C747.30,904.97 747.00,886.52 747.00,864.33 L 747.00 824.00 L 779.79 824.00 C811.83,824.00 812.68,824.05 816.95,826.25 C825.65,830.72 829.09,844.02 824.09,853.83 C821.91,858.09 819.36,860.25 815.00,861.52 C808.70,863.35 809.23,867.30 815.92,868.37 C820.94,869.17 824.49,873.53 826.05,880.80 C828.24,891.03 823.41,902.96 816.27,904.94 ZM 767.00 989.00 L 766.50 1001.50 L 756.87 1001.78 C748.75,1002.02 747.14,1001.82 746.62,1000.45 C745.81,998.34 745.83,965.86 746.66,940.20 L 747.32 919.90 L 777.91 920.20 L 808.50 920.50 L 813.18 923.25 C822.37,928.65 827.94,939.13 826.50,948.29 C825.58,954.13 821.56,961.63 816.38,967.21 C813.97,969.80 812.00,972.59 812.00,973.42 C812.00,975.69 815.28,977.00 820.97,977.00 L 826.06 977.00 L 825.50 1000.50 L 814.50 1000.79 C789.47,1001.44 778.32,996.22 773.88,981.77 C772.51,977.34 771.88,976.50 769.88,976.50 C767.53,976.50 767.49,976.64 767.00,989.00 ZM 795.00 1083.11 L 794.50 1097.50 L 781.00 1097.50 C766.79,1097.50 766.72,1097.50 760.66,1096.50 C751.92,1095.07 743.80,1083.10 743.69,1071.50 C743.59,1060.69 748.99,1053.06 761.04,1046.98 C765.31,1044.82 767.00,1043.41 767.00,1041.99 C767.00,1040.14 766.31,1040.00 757.12,1040.00 C744.56,1040.00 743.99,1039.48 747.10,1030.94 C748.34,1027.55 750.75,1023.29 752.45,1021.48 C757.48,1016.15 761.16,1015.66 788.63,1016.67 L 812.75 1017.56 L 816.87 1020.41 C819.59,1022.30 821.91,1025.15 823.74,1028.88 L 826.50 1034.50 L 826.82 1065.38 C826.99,1082.55 826.74,1096.66 826.24,1097.16 C824.92,1098.48 818.54,1095.48 814.03,1091.41 C809.39,1087.22 805.84,1081.44 803.50,1074.28 C801.48,1068.12 799.59,1066.14 797.17,1067.66 C795.78,1068.54 795.42,1071.12 795.00,1083.11 ZM 547.19 737.87 L 696.88 738.00 L 548.30 738.00 C455.91,738.00 419.70,737.98 401.56,737.13 C423.12,737.51 478.65,737.81 547.19,737.87 ZM 379.86 734.44 L 379.50 734.36 C355.28,729.20 333.34,717.64 315.35,701.38 C320.39,705.85 325.76,709.98 331.45,713.73 C347.07,724.03 361.42,730.25 379.86,734.44 ZM 748.78 675.14 C740.72,677.04 732.77,680.73 725.68,685.72 C731.38,681.62 737.58,678.36 743.72,676.38 C745.19,675.91 746.90,675.49 748.78,675.14 ZM 165.05 206.05 C165.29,206.07 165.43,206.09 165.45,206.12 C165.74,206.40 165.36,206.81 164.34,207.31 C165.23,206.82 165.43,206.41 165.05,206.05 ZM 49.11 195.15 C49.24,188.73 50.43,180.92 52.42,172.75 C52.40,172.84 52.39,172.92 52.37,173.00 C50.46,180.89 49.30,188.40 49.15,194.54 L 49.14 194.62 C49.13,194.80 49.12,194.97 49.11,195.15 ZM 58.68 152.75 C60.50,148.03 62.51,143.48 64.66,139.31 C62.60,143.29 60.67,147.65 58.91,152.18 L 58.89 152.23 C58.82,152.40 58.75,152.57 58.68,152.75 Z" fill="rgb(68,195,202)"/>
<path d="M 837.43 446.27 C837.89,445.03 837.94,443.12 837.66,439.74 C837.27,434.89 836.63,430.07 835.76,425.32 C833.94,414.68 830.62,403.85 826.01,393.39 C820.96,381.83 814.40,370.93 806.45,361.00 C786.59,336.18 759.35,318.91 727.50,310.93 C714.76,307.74 698.79,307.05 636.40,306.98 L 578.26 306.91 C579.39,305.98 579.97,304.77 579.80,303.60 L 579.50 301.50 L 456.75 301.25 L 334.00 300.99 L 334.00 304.75 L 333.99 300.97 L 458.15 301.02 L 582.31 301.06 L 584.75 298.78 C588.84,294.96 600.31,277.09 605.33,266.69 C612.56,251.73 617.30,234.97 618.53,220.00 C618.78,216.98 619.23,212.24 619.54,209.49 C620.56,200.15 617.69,178.37 613.61,164.50 C610.63,154.37 610.55,154.16 606.05,144.50 C594.04,118.66 573.88,96.31 549.50,81.81 C541.22,76.88 526.24,70.00 523.80,70.00 C523.03,70.00 521.97,69.60 521.45,69.12 C520.56,68.30 509.55,65.56 497.17,63.07 C489.64,61.56 178.23,61.57 170.83,63.09 C159.02,65.51 147.44,68.32 146.50,69.00 C145.95,69.40 144.16,70.04 142.53,70.44 C136.97,71.77 122.52,79.14 113.00,85.50 C98.39,95.26 86.01,107.16 76.04,120.98 C71.76,126.83 67.94,132.97 64.66,139.31 C62.51,143.48 60.50,148.03 58.68,152.75 C57.28,156.25 56.00,159.84 54.84,163.50 C53.97,166.23 53.15,169.40 52.42,172.75 C50.43,180.92 49.24,188.73 49.11,195.15 C48.86,198.83 48.89,201.76 49.28,203.30 C49.22,205.26 48.90,206.00 48.28,206.00 C47.36,206.00 46.97,203.83 46.88,198.25 C46.82,193.99 46.85,190.08 46.95,189.56 C47.05,189.04 47.27,186.34 47.44,183.56 C47.79,177.99 49.27,171.07 51.36,165.27 C52.11,163.20 53.52,159.02 54.50,156.00 C57.66,146.25 67.13,128.08 72.98,120.53 C74.70,118.31 77.43,114.35 79.05,111.72 C80.67,109.09 83.57,106.00 85.50,104.87 C87.42,103.73 89.00,102.41 89.00,101.92 C89.00,100.69 97.82,92.66 100.14,91.77 C101.19,91.37 102.31,90.37 102.63,89.53 C103.62,86.95 129.88,71.00 133.14,71.00 C133.68,71.00 136.46,69.91 139.31,68.57 C142.17,67.23 146.75,65.69 149.50,65.13 C152.25,64.58 157.65,63.15 161.50,61.96 C166.24,60.50 172.22,59.65 180.00,59.32 C195.81,58.66 472.62,58.65 487.50,59.31 C496.03,59.69 502.25,60.61 509.00,62.47 C514.22,63.91 520.15,65.52 522.18,66.03 C527.01,67.27 545.77,76.32 554.00,81.38 C560.34,85.28 564.41,88.27 570.50,93.51 C572.15,94.93 574.74,97.00 576.25,98.12 C577.76,99.23 579.00,100.72 579.00,101.42 C579.00,102.12 579.84,103.10 580.86,103.60 C583.80,105.03 596.00,119.87 596.00,122.01 C596.00,122.67 597.26,124.85 598.80,126.86 C603.25,132.63 610.00,144.66 610.00,146.81 C610.00,147.89 611.36,151.68 613.02,155.23 C616.40,162.46 619.17,173.23 619.37,180.00 C619.45,182.48 619.90,185.11 620.38,185.86 C621.40,187.45 621.55,223.31 620.54,224.93 C620.17,225.54 619.67,228.17 619.45,230.77 C618.73,238.99 618.09,242.40 616.59,246.00 C615.79,247.93 614.01,252.43 612.63,256.02 C611.25,259.60 609.42,263.88 608.57,265.52 C607.71,267.16 607.01,268.87 607.01,269.33 C606.99,270.96 598.61,284.53 596.83,285.81 C595.82,286.53 595.00,287.73 595.00,288.49 C595.00,290.42 590.72,296.91 589.41,296.96 C588.25,297.00 585.62,301.96 586.36,302.70 C586.61,302.94 609.69,303.11 637.65,303.09 C671.03,303.05 690.91,303.42 695.50,304.17 C699.35,304.79 705.42,305.42 709.00,305.55 C716.74,305.86 723.05,306.70 728.50,308.18 C750.28,314.07 770.45,323.47 781.67,332.97 C783.97,334.91 787.56,337.85 789.66,339.50 C796.38,344.79 807.34,356.57 810.91,362.35 C812.15,364.36 813.48,366.00 813.86,366.00 C814.25,366.00 815.11,367.24 815.77,368.75 C816.44,370.26 818.11,373.03 819.50,374.91 C820.88,376.78 822.56,380.16 823.23,382.41 C823.89,384.66 825.15,387.28 826.03,388.24 C828.16,390.55 834.02,404.91 834.01,407.77 C834.00,410.14 836.63,421.06 838.04,424.50 C839.77,428.71 841.39,449.05 840.15,450.89 C839.37,452.04 831.85,452.24 795.51,452.08 C764.94,451.94 752.01,452.20 752.46,452.94 C752.84,453.55 752.27,454.00 751.12,454.00 C750.02,454.00 748.84,453.55 748.50,453.00 C748.16,452.45 745.32,452.03 742.19,452.07 C738.09,452.12 737.06,452.38 738.50,453.00 C739.85,453.58 740.02,453.89 739.00,453.95 C737.46,454.05 748.70,458.98 750.50,459.00 C751.05,459.01 752.62,459.61 754.00,460.35 C755.38,461.08 761.38,464.24 767.34,467.37 C774.57,471.16 779.80,474.71 783.03,478.03 C785.69,480.76 788.28,483.00 788.78,483.00 C790.23,483.00 795.06,487.50 796.34,490.03 C796.98,491.30 798.74,493.06 800.25,493.92 C801.76,494.79 804.34,497.64 805.98,500.25 C807.62,502.86 809.33,505.00 809.79,505.00 C812.46,505.00 830.39,537.35 832.79,546.50 C833.94,550.86 836.64,561.45 838.04,567.00 C840.47,576.73 841.22,598.87 839.58,612.50 C838.16,624.19 830.64,650.15 827.54,654.00 C826.88,654.83 825.59,657.53 824.67,660.00 C823.75,662.47 822.21,665.68 821.25,667.12 C815.31,675.99 814.05,677.69 812.13,679.40 C810.96,680.45 810.00,682.11 810.00,683.08 C810.00,685.46 807.33,688.00 804.82,688.00 C803.71,688.00 800.79,686.65 798.34,685.00 C795.90,683.35 793.36,681.99 792.70,681.97 C792.04,681.95 790.63,681.28 789.56,680.47 C787.50,678.91 780.90,678.35 782.55,679.88 C782.94,680.24 784.29,680.86 785.86,681.44 C779.72,679.53 773.12,678.59 766.00,678.59 C761.61,678.59 757.45,678.93 753.48,679.63 C760.94,678.04 768.23,677.73 774.42,678.89 C777.67,679.50 780.59,679.75 780.89,679.44 C781.87,678.47 778.60,677.03 775.36,677.02 C773.64,677.01 770.94,676.29 769.36,675.42 C766.57,673.88 766.68,673.85 773.50,674.28 C774.59,674.35 775.76,674.49 777.00,674.70 C784.86,676.16 793.66,679.50 800.11,683.57 L 804.38 686.26 L 806.76 683.38 C815.02,673.37 821.55,662.26 826.77,649.10 L 826.77 649.10 C829.98,641.35 832.57,633.33 834.32,625.50 C834.95,622.73 835.46,620.36 835.90,618.26 L 835.90 618.26 C836.26,616.59 836.61,614.90 836.95,613.17 C837.21,611.83 837.43,609.87 837.59,607.53 C837.93,603.90 838.00,600.16 838.00,594.73 C838.00,592.81 837.97,590.91 837.90,589.02 L 837.90 589.02 C837.77,583.50 837.45,578.47 836.94,575.56 C836.73,574.39 836.52,573.24 836.30,572.10 C834.66,561.55 831.80,551.31 827.61,540.88 C824.28,532.38 820.23,524.50 815.27,516.77 L 815.26 516.76 C813.56,514.10 811.77,511.50 809.90,508.95 L 809.89 508.95 C808.79,507.45 807.66,505.95 806.48,504.44 C802.89,499.84 798.75,495.35 794.23,491.05 C784.48,481.62 773.35,473.54 761.16,467.12 C752.62,462.49 743.95,458.87 735.76,456.65 C732.69,455.64 730.34,455.00 729.43,455.00 C728.40,455.00 726.72,452.51 727.25,451.81 C728.51,451.75 729.99,451.69 731.73,451.64 C740.20,451.48 759.83,451.24 782.50,451.02 L 837.50 450.50 ZM 697.50 733.25 C698.56,725.13 702.88,712.35 706.77,705.81 C711.22,698.32 717.99,691.26 725.68,685.72 L 725.69 685.72 C732.77,680.73 740.72,677.04 748.78,675.14 C752.96,674.34 757.97,673.86 762.93,673.75 C765.01,674.01 763.57,674.77 758.37,675.39 C751.47,676.20 735.48,681.41 731.79,684.06 C730.30,685.13 728.61,686.00 728.05,686.00 C726.07,686.00 710.00,702.78 710.00,704.84 C710.00,705.95 709.43,707.45 708.74,708.18 C705.25,711.83 703.03,717.14 701.61,725.26 C701.35,726.78 700.88,728.81 700.57,729.77 C700.27,730.73 699.84,733.02 699.63,734.84 C699.42,736.66 698.83,738.57 698.33,739.07 C697.44,739.96 404.30,740.97 403.42,740.09 C403.19,739.86 399.45,739.62 395.11,739.55 C390.77,739.48 386.61,738.94 385.86,738.35 C385.11,737.76 382.86,737.23 380.87,737.17 C378.87,737.12 375.27,736.34 372.87,735.46 C370.46,734.57 366.02,733.25 363.00,732.52 C354.56,730.48 334.13,719.72 325.50,712.75 C324.95,712.31 322.48,710.64 320.00,709.03 C313.80,705.02 294.00,684.81 294.00,682.50 C294.00,681.74 292.20,679.04 290.00,676.50 C287.80,673.96 286.00,671.42 286.00,670.86 C286.00,670.31 284.24,666.85 282.09,663.17 C279.94,659.50 277.20,654.03 276.00,651.00 C274.80,647.97 273.26,644.38 272.57,643.00 C271.89,641.62 270.75,637.80 270.06,634.50 C269.36,631.20 268.33,627.15 267.77,625.50 C267.22,623.85 266.38,619.12 265.90,615.00 C265.43,610.88 264.62,603.90 264.10,599.50 C263.57,595.10 263.11,570.24 263.07,544.25 L 263.00 497.00 L 157.55 497.00 C79.65,497.00 51.43,496.70 49.55,495.84 L 47.00 494.68 L 46.75 417.59 C46.62,375.19 46.54,337.77 46.57,334.43 C46.63,328.94 49.88,312.97 52.11,307.20 C52.60,305.94 53.00,304.25 53.00,303.46 C53.00,302.66 54.54,298.74 56.41,294.75 C58.29,290.76 61.24,284.36 62.97,280.52 C64.70,276.67 66.84,272.73 67.72,271.76 C68.60,270.78 69.81,269.15 70.41,268.14 C73.83,262.33 77.51,257.63 83.39,251.57 C87.03,247.83 90.00,244.37 90.00,243.88 C90.00,243.40 90.51,243.00 91.13,243.00 C91.75,243.00 94.56,240.61 97.38,237.70 C103.22,231.65 110.70,226.47 119.76,222.19 C123.20,220.56 126.69,218.67 127.52,217.98 C128.35,217.29 134.02,214.82 140.12,212.50 C146.22,210.17 152.07,207.53 153.12,206.63 C153.56,206.25 154.26,205.94 155.10,205.68 C160.39,205.81 163.91,205.93 165.05,206.05 C165.43,206.41 165.23,206.82 164.34,207.31 C163.40,207.78 161.93,208.33 159.94,208.96 C159.86,208.98 159.77,209.00 159.69,209.02 C154.84,210.15 149.23,211.89 143.53,214.01 L 143.53 214.01 C139.62,215.42 135.78,217.01 132.03,218.75 C131.81,218.85 131.59,218.96 131.36,219.06 C127.85,220.68 124.50,222.39 121.46,224.13 C108.87,231.35 97.49,240.43 87.68,250.92 C73.91,265.62 63.17,283.22 56.58,302.66 C54.99,307.34 53.76,310.87 52.80,314.46 C49.50,326.90 49.50,340.23 49.50,405.46 C49.50,407.59 49.50,409.77 49.50,412.00 L 49.50 493.50 L 266.50 494.50 L 267.08 553.50 C267.62,609.07 267.78,613.07 269.81,622.29 C276.78,653.89 292.57,681.15 315.35,701.38 C333.34,717.64 355.28,729.20 379.50,734.36 L 379.86 734.44 C383.71,735.31 387.74,736.10 392.00,736.81 C392.65,736.92 395.96,737.03 401.56,737.13 C419.70,737.98 455.91,738.00 548.30,738.00 L 696.88 738.00 ZM 643.86 1172.11 C644.70,1171.57 644.96,1170.46 644.55,1169.14 C644.31,1168.39 644.33,1167.52 644.61,1166.63 C644.43,1167.49 644.43,1168.46 644.64,1169.50 C644.98,1171.15 645.76,1172.83 646.38,1173.23 C646.99,1173.64 687.83,1173.98 737.13,1173.98 C811.97,1174.00 826.94,1173.77 827.90,1172.62 C828.70,1171.66 828.96,1164.28 828.77,1147.88 L 828.50 1124.50 L 718.75 1124.25 L 610.31 1123.99 C610.71,1123.70 611.00,1123.17 611.00,1122.66 C611.00,1119.32 617.49,1119.10 719.89,1119.03 C786.73,1118.98 822.38,1119.31 824.82,1119.99 C831.59,1121.89 831.86,1122.94 832.08,1148.38 C832.25,1168.44 832.08,1171.26 830.58,1172.91 C829.53,1174.07 828.11,1174.58 826.84,1174.25 C825.68,1173.94 824.43,1174.30 823.96,1175.07 C823.26,1176.20 805.59,1176.43 719.06,1176.46 C661.83,1176.48 614.49,1176.33 613.88,1176.12 C613.26,1175.92 611.87,1174.87 610.79,1173.79 C609.25,1172.25 608.92,1170.87 608.88,1157.26 C609.08,1166.99 609.60,1172.73 610.37,1173.23 C611.70,1174.10 635.52,1174.24 638.65,1173.39 C640.48,1172.90 640.69,1172.39 640.00,1170.01 C639.99,1169.98 639.98,1169.94 639.97,1169.91 C640.15,1170.47 640.33,1171.05 640.47,1171.50 C641.00,1173.20 641.89,1173.36 643.86,1172.11 ZM 734.79 686.35 C729.77,689.23 725.04,692.94 720.50,697.53 C726.02,691.96 729.82,688.96 734.79,686.35 ZM 548.88 328.76 C545.58,330.75 542.24,332.58 538.87,334.27 C535.21,336.05 531.39,337.70 527.34,339.28 C534.68,336.36 542.00,332.79 548.88,328.76 ZM 619.30 489.85 C619.82,483.00 620.00,463.42 620.00,421.46 C620.00,465.76 619.86,483.52 619.30,489.85 ZM 334.67 493.33 C334.73,493.39 336.54,493.45 339.88,493.51 L 334.50 493.50 L 334.49 489.72 C334.55,492.02 334.61,493.27 334.67,493.33 ZM 821.34 709.80 C818.63,705.30 815.35,701.27 811.05,696.99 C809.86,695.80 808.66,694.68 807.43,693.62 C808.87,694.84 810.25,696.12 811.56,697.44 C815.58,701.50 818.72,705.42 821.34,709.80 ZM 650.71 1162.06 C648.93,1162.24 647.49,1162.79 646.43,1163.65 C647.46,1162.58 648.61,1162.17 650.71,1162.06 ZM 520.33 341.85 C519.92,342.00 519.50,342.14 519.08,342.28 C518.45,342.50 517.83,342.72 517.24,342.94 C514.27,343.83 511.29,344.61 508.31,345.27 C512.24,344.38 516.27,343.23 520.33,341.85 ZM 574.01 310.21 L 572.29 311.70 C571.07,312.77 569.83,313.81 568.59,314.83 C568.73,314.71 568.86,314.59 569.00,314.47 C570.69,312.99 572.47,311.48 574.01,310.21 ZM 795.96 685.66 C793.39,684.29 790.74,683.12 788.00,682.15 C790.55,682.98 793.24,684.17 795.96,685.66 ZM 613.56 493.30 C616.55,493.18 618.16,493.04 618.65,492.87 L 618.64 492.88 C618.45,493.04 616.82,493.18 613.56,493.30 ZM 654.68 1161.81 C655.07,1161.72 655.35,1161.61 655.53,1161.46 C655.65,1161.37 655.72,1161.26 655.75,1161.14 C655.68,1161.45 655.33,1161.67 654.68,1161.81 Z" fill="rgb(65,192,194)"/>
<path d="M 640.08 1145.62 C640.08,1145.63 640.08,1145.63 640.08,1145.64 C640.05,1146.73 640.14,1147.77 640.39,1148.71 C640.62,1150.04 640.98,1151.00 641.42,1151.00 C640.56,1152.33 640.00,1153.63 640.00,1154.60 C640.00,1156.67 639.53,1157.00 636.55,1157.00 C634.89,1157.00 633.23,1157.45 632.54,1158.04 C632.47,1157.32 631.20,1157.00 628.74,1157.18 C624.84,1157.47 624.53,1157.32 624.81,1155.25 C625.26,1152.03 622.70,1152.38 618.77,1156.07 L 615.50 1159.14 L 617.51 1158.81 C617.99,1158.78 618.58,1158.71 619.25,1158.59 C621.05,1158.26 622.10,1158.22 622.61,1158.49 C622.92,1158.73 623.00,1159.14 623.00,1159.79 C623.00,1161.81 623.55,1162.84 624.80,1162.91 C623.24,1163.13 622.00,1162.90 622.00,1162.11 C622.00,1161.63 619.92,1160.91 617.37,1160.53 C610.90,1159.56 609.47,1158.95 611.17,1157.88 C611.90,1157.41 613.34,1157.02 614.36,1157.02 C615.38,1157.01 617.55,1155.88 619.18,1154.50 C620.82,1153.12 623.24,1152.00 624.58,1152.00 C626.91,1152.00 627.00,1151.74 627.00,1145.00 C627.00,1138.43 627.14,1138.00 629.25,1137.94 C631.49,1137.87 631.49,1137.87 629.10,1136.92 C627.79,1136.39 627.01,1135.66 627.37,1135.30 C627.73,1134.94 629.35,1135.62 630.97,1136.82 C633.97,1139.04 637.56,1139.70 638.17,1138.14 C638.35,1137.67 640.53,1136.40 643.00,1135.32 L 647.50 1133.35 L 651.13 1135.48 C648.90,1134.40 646.67,1133.71 645.84,1134.13 C643.82,1135.16 642.10,1137.67 641.08,1140.53 C640.99,1140.53 640.92,1140.55 640.85,1140.59 C640.22,1140.98 640.00,1143.28 640.08,1145.62 ZM 810.00 1158.15 C799.12,1159.27 671.00,1160.75 671.00,1159.75 C671.00,1159.34 671.56,1158.99 672.25,1158.98 C673.08,1158.97 673.00,1158.65 672.00,1158.00 C671.03,1157.37 696.41,1157.07 744.50,1157.15 C793.42,1157.23 815.62,1157.57 810.00,1158.15 ZM 632.00 1150.83 C632.00,1152.84 634.42,1152.05 636.34,1149.42 C638.84,1145.97 637.84,1144.00 633.59,1144.00 C629.43,1144.00 628.22,1145.48 630.40,1147.89 C631.28,1148.86 632.00,1150.18 632.00,1150.83 ZM 638.65 1173.39 C638.38,1173.47 637.96,1173.53 637.41,1173.59 C637.88,1173.53 638.22,1173.47 638.41,1173.40 C640.63,1172.54 639.36,1171.00 636.44,1171.00 C634.94,1171.00 634.00,1170.42 634.00,1169.50 C634.00,1168.59 634.93,1168.00 636.38,1168.00 C639.44,1168.00 641.30,1165.71 641.22,1162.05 C641.27,1163.72 640.82,1165.58 640.23,1166.17 C639.64,1166.76 639.35,1167.86 639.58,1168.62 C639.68,1168.97 639.83,1169.43 639.97,1169.91 C639.98,1169.94 639.99,1169.98 640.00,1170.01 C640.69,1172.39 640.48,1172.90 638.65,1173.39 ZM 740.00 1137.00 C740.00,1139.58 739.90,1139.55 736.50,1136.00 C734.25,1133.65 733.99,1133.00 735.31,1133.00 C736.24,1133.00 737.00,1133.45 737.00,1134.00 C737.00,1134.55 737.67,1135.00 738.50,1135.00 C739.33,1135.00 740.00,1135.89 740.00,1137.00 ZM 685.00 1137.79 C685.00,1141.14 683.38,1142.14 682.33,1139.42 C682.00,1138.55 682.46,1137.11 683.36,1136.21 C684.88,1134.69 685.00,1134.81 685.00,1137.79 ZM 648.32 1145.00 C649.83,1144.99 652.17,1143.99 654.01,1142.81 C652.19,1143.99 649.90,1144.99 648.43,1145.00 C647.31,1145.00 645.68,1146.12 644.14,1147.65 C644.20,1147.56 644.26,1147.48 644.32,1147.40 C645.63,1145.99 647.25,1145.00 648.32,1145.00 ZM 628.84 1161.43 C628.50,1161.65 628.13,1161.85 627.74,1162.03 C628.09,1161.86 628.45,1161.66 628.84,1161.43 ZM 641.83 1159.30 C641.39,1159.73 641.19,1160.62 641.22,1161.97 C641.18,1160.63 641.39,1159.73 641.83,1159.30 Z" fill="rgb(173,159,29)"/>
<path d="M 721.23 1151.28 C719.86,1152.50 716.91,1152.83 707.24,1152.82 C696.16,1152.82 694.87,1152.63 693.94,1150.89 C693.14,1149.40 693.28,1148.83 694.55,1148.34 C696.40,1147.63 699.55,1140.91 700.56,1135.54 L 701.22 1132.00 L 713.84 1132.00 L 715.67 1139.14 C717.64,1146.81 719.89,1149.37 723.77,1148.35 C725.75,1147.83 726.00,1147.12 726.00,1141.99 C726.00,1137.78 725.59,1136.06 724.50,1135.64 C723.67,1135.32 723.00,1134.41 723.00,1133.62 C723.00,1132.42 725.46,1132.16 737.00,1132.13 C748.74,1132.10 751.00,1132.33 751.00,1133.58 C751.00,1134.39 750.33,1135.32 749.50,1135.64 C747.21,1136.52 747.42,1146.57 749.75,1147.90 C751.14,1148.69 751.27,1149.27 750.40,1150.70 C749.04,1152.93 743.47,1153.59 740.31,1151.90 C738.50,1150.93 737.69,1150.91 736.78,1151.82 C736.13,1152.47 733.04,1153.00 729.91,1153.00 C725.56,1153.00 724.07,1152.61 723.59,1151.36 C723.02,1149.88 722.79,1149.87 721.23,1151.28 ZM 785.65 1151.46 C785.22,1152.59 783.66,1152.98 779.78,1152.92 C776.88,1152.88 773.94,1152.62 773.25,1152.34 C771.51,1151.63 771.68,1148.34 773.50,1147.64 C774.58,1147.22 775.00,1145.54 775.00,1141.64 C775.00,1137.74 774.58,1136.05 773.50,1135.64 C772.67,1135.32 772.00,1134.37 772.00,1133.53 C772.00,1132.35 773.21,1132.00 777.30,1132.00 C780.22,1132.00 783.09,1132.49 783.69,1133.09 C784.47,1133.87 784.96,1133.87 785.45,1133.09 C785.83,1132.47 789.14,1132.00 793.06,1132.00 C798.63,1132.00 800.00,1132.30 800.00,1133.53 C800.00,1134.37 799.33,1135.32 798.50,1135.64 C796.32,1136.48 796.40,1146.57 798.60,1147.80 C799.48,1148.29 800.04,1149.55 799.84,1150.60 C799.36,1153.17 792.10,1153.77 788.67,1151.52 C786.50,1150.10 786.18,1150.09 785.65,1151.46 ZM 686.04 1151.46 C684.73,1153.03 674.06,1153.73 672.67,1152.33 C671.46,1151.12 671.97,1148.22 673.50,1147.64 C674.58,1147.22 675.00,1145.54 675.00,1141.64 C675.00,1137.74 674.58,1136.05 673.50,1135.64 C672.67,1135.32 672.00,1134.37 672.00,1133.53 C672.00,1132.25 673.73,1132.00 682.39,1132.00 C693.92,1132.00 694.00,1132.05 694.00,1138.93 C694.00,1143.34 691.62,1146.00 687.67,1146.00 C684.80,1146.00 684.31,1146.91 686.16,1148.76 C687.03,1149.63 687.00,1150.29 686.04,1151.46 ZM 817.40 1150.70 C816.60,1152.01 814.80,1152.58 810.86,1152.79 C807.87,1152.96 805.10,1152.77 804.71,1152.38 C803.46,1151.13 803.95,1148.23 805.50,1147.64 C807.92,1146.71 807.52,1137.89 804.96,1135.70 C801.82,1133.01 803.47,1132.00 811.00,1132.00 C818.57,1132.00 819.96,1132.82 816.98,1135.52 C814.32,1137.93 814.16,1146.42 816.75,1147.90 C818.14,1148.69 818.27,1149.27 817.40,1150.70 ZM 768.84 1150.60 C768.54,1152.18 767.45,1152.55 762.45,1152.79 C759.13,1152.95 756.10,1152.77 755.71,1152.38 C754.46,1151.13 754.95,1148.23 756.50,1147.64 C757.58,1147.22 758.00,1145.54 758.00,1141.64 C758.00,1137.74 757.58,1136.05 756.50,1135.64 C755.67,1135.32 755.00,1134.37 755.00,1133.53 C755.00,1132.30 756.38,1132.00 762.00,1132.00 C767.62,1132.00 769.00,1132.30 769.00,1133.53 C769.00,1134.37 768.33,1135.32 767.50,1135.64 C765.32,1136.48 765.40,1146.57 767.60,1147.80 C768.48,1148.29 769.04,1149.55 768.84,1150.60 ZM 727.82 1142.08 C727.51,1149.73 727.58,1150.00 729.75,1150.00 C731.65,1150.00 732.00,1149.46 732.00,1146.56 C732.00,1144.67 732.39,1142.88 732.86,1142.58 C733.34,1142.29 735.38,1143.84 737.40,1146.03 C739.77,1148.58 741.96,1150.00 743.54,1150.00 C745.95,1150.00 746.00,1149.83 746.00,1142.00 C746.00,1134.67 745.83,1134.00 744.00,1134.00 C742.40,1134.00 742.00,1134.67 742.00,1137.33 C742.00,1139.17 741.69,1140.98 741.31,1141.36 C740.93,1141.74 738.53,1140.00 735.99,1137.49 C729.56,1131.16 728.24,1131.90 727.82,1142.08 ZM 777.00 1141.83 C776.51,1149.79 776.56,1150.00 778.75,1150.00 C780.65,1150.00 781.00,1149.46 781.00,1146.50 C781.00,1144.24 781.48,1143.00 782.34,1143.00 C783.08,1143.00 785.11,1144.57 786.86,1146.50 C788.87,1148.70 790.97,1150.00 792.52,1150.00 C794.95,1150.00 795.00,1149.85 795.00,1142.00 C795.00,1134.32 794.91,1134.00 792.70,1134.00 C790.68,1134.00 790.45,1134.41 790.80,1137.38 C791.01,1139.24 790.75,1141.04 790.21,1141.37 C789.68,1141.70 787.17,1139.91 784.65,1137.39 C782.13,1134.87 779.49,1133.00 778.79,1133.23 C777.94,1133.51 777.33,1136.43 777.00,1141.83 ZM 698.01 1149.25 C698.01,1149.66 699.03,1150.00 700.28,1150.00 C702.57,1150.00 702.72,1149.70 705.68,1138.69 C705.95,1137.70 706.68,1137.06 707.31,1137.27 C708.75,1137.75 711.21,1145.90 710.62,1148.25 C710.27,1149.66 710.85,1150.00 713.57,1150.00 C716.68,1150.00 716.88,1149.82 716.06,1147.75 C715.57,1146.51 714.61,1143.33 713.93,1140.67 C713.25,1138.01 712.06,1135.20 711.28,1134.42 C709.49,1132.63 704.60,1132.57 703.15,1134.32 C702.16,1135.52 698.04,1147.47 698.01,1149.25 ZM 655.72 1160.75 C655.47,1160.06 655.64,1158.77 656.10,1157.88 C656.76,1156.59 656.23,1156.20 652.87,1155.80 C663.60,1156.19 696.76,1156.64 735.00,1156.87 C753.56,1156.98 770.23,1157.14 783.27,1157.31 C773.12,1157.23 760.18,1157.18 744.50,1157.15 C696.41,1157.07 671.03,1157.37 672.00,1158.00 C673.00,1158.65 673.08,1158.97 672.25,1158.98 C671.56,1158.99 671.00,1159.34 671.00,1159.75 C671.00,1160.07 684.19,1160.14 702.48,1160.04 C685.25,1160.39 671.21,1160.80 665.55,1161.16 C649.27,1162.18 647.43,1162.48 645.82,1164.39 C645.78,1164.44 645.74,1164.48 645.70,1164.53 C645.95,1164.19 646.19,1163.90 646.43,1163.65 C647.49,1162.79 648.93,1162.24 650.71,1162.06 C651.06,1162.04 651.43,1162.03 651.83,1162.03 C653.10,1162.02 654.04,1161.95 654.68,1161.81 C655.33,1161.67 655.68,1161.45 655.75,1161.14 C655.78,1161.03 655.77,1160.89 655.72,1160.75 ZM 643.44 1148.54 C643.49,1148.47 643.55,1148.41 643.60,1148.34 C643.79,1148.11 643.97,1147.88 644.14,1147.65 C645.68,1146.12 647.31,1145.00 648.43,1145.00 C649.90,1144.99 652.19,1143.99 654.01,1142.81 C654.27,1142.64 654.52,1142.47 654.75,1142.30 C654.27,1142.68 653.67,1143.06 652.96,1143.47 C650.81,1144.71 649.56,1146.12 649.76,1147.09 C649.94,1147.97 649.39,1149.26 648.54,1149.96 C646.87,1151.35 646.64,1153.26 647.70,1154.53 C647.35,1154.35 647.10,1154.16 646.99,1153.98 C646.43,1153.08 645.76,1152.98 645.19,1153.44 C644.53,1153.91 644.00,1155.06 644.00,1156.56 C644.00,1158.01 643.42,1159.00 642.57,1159.00 C642.27,1159.00 642.03,1159.10 641.83,1159.30 L 641.82 1159.30 C641.78,1159.34 641.74,1159.38 641.71,1159.43 C641.36,1159.90 641.19,1160.75 641.22,1161.97 L 641.22 1162.05 C641.22,1162.24 641.22,1162.42 641.22,1162.60 C641.15,1161.88 640.71,1161.63 639.83,1161.78 C638.90,1161.93 637.87,1161.59 637.52,1161.03 C636.72,1159.74 632.44,1159.78 629.79,1160.86 C631.69,1159.65 632.60,1158.69 632.54,1158.04 C633.23,1157.45 634.89,1157.00 636.55,1157.00 C639.53,1157.00 640.00,1156.67 640.00,1154.60 C640.00,1153.63 640.56,1152.33 641.42,1151.00 L 641.42 1151.00 C641.52,1151.00 642.39,1149.94 643.44,1148.54 ZM 675.82 1142.08 L 675.50 1150.00 L 678.82 1150.00 C681.71,1150.00 682.05,1149.73 681.48,1147.95 C681.13,1146.83 681.34,1145.29 681.97,1144.54 C682.74,1143.60 682.77,1142.98 682.05,1142.53 C681.47,1142.17 681.00,1140.14 681.00,1138.00 C681.00,1133.85 680.09,1132.64 677.66,1133.58 C676.53,1134.01 676.07,1136.14 675.82,1142.08 ZM 759.21 1141.75 L 758.92 1150.00 L 761.71 1150.00 L 764.50 1150.00 L 764.00 1141.75 C763.55,1134.33 763.30,1133.50 761.50,1133.50 C759.69,1133.50 759.47,1134.26 759.21,1141.75 ZM 808.21 1141.75 L 807.92 1150.00 L 810.71 1150.00 L 813.50 1150.00 L 813.00 1141.75 C812.55,1134.33 812.30,1133.50 810.50,1133.50 C808.69,1133.50 808.47,1134.26 808.21,1141.75 ZM 627.63 1124.03 L 718.75 1124.25 L 828.50 1124.50 L 636.50 1124.07 L 639.50 1126.53 C641.15,1127.88 643.27,1128.99 644.22,1128.99 C645.16,1129.00 646.54,1130.16 647.29,1131.58 C647.89,1132.72 649.56,1134.35 651.32,1135.58 C651.26,1135.54 651.20,1135.51 651.13,1135.48 L 647.50 1133.35 L 643.00 1135.32 C640.53,1136.40 638.35,1137.67 638.17,1138.14 C637.56,1139.70 633.97,1139.04 630.97,1136.82 C630.22,1136.26 629.46,1135.82 628.84,1135.54 C629.51,1135.63 630.36,1135.81 631.36,1136.09 C636.34,1137.46 645.00,1134.80 645.00,1131.89 C645.00,1130.55 637.73,1127.84 635.61,1128.39 C634.19,1128.76 634.00,1128.60 634.86,1127.74 C635.49,1127.11 636.00,1126.02 636.00,1125.30 C636.00,1124.49 633.96,1124.14 627.63,1124.03 ZM 686.89 1143.25 C687.02,1144.16 687.37,1144.18 689.42,1143.39 C690.53,1142.97 691.00,1141.48 691.00,1138.39 C691.00,1134.50 690.74,1134.00 688.75,1134.00 C686.75,1134.00 686.52,1134.47 686.64,1138.25 C686.72,1140.59 686.84,1142.84 686.89,1143.25 ZM 740.00 1137.00 C740.00,1135.89 739.33,1135.00 738.50,1135.00 C737.67,1135.00 737.00,1134.55 737.00,1134.00 C737.00,1133.45 736.24,1133.00 735.31,1133.00 C733.99,1133.00 734.25,1133.65 736.50,1136.00 C739.90,1139.55 740.00,1139.58 740.00,1137.00 ZM 642.00 1153.46 C642.00,1154.63 643.85,1153.02 646.02,1149.97 C647.53,1147.85 647.75,1147.00 646.78,1147.00 C645.57,1147.00 642.00,1151.82 642.00,1153.46 ZM 685.00 1137.79 C685.00,1134.81 684.88,1134.69 683.36,1136.21 C682.46,1137.11 682.00,1138.55 682.33,1139.42 C683.38,1142.14 685.00,1141.14 685.00,1137.79 ZM 706.49 1147.98 C706.98,1148.78 707.62,1148.73 708.74,1147.80 C710.16,1146.63 710.14,1146.47 708.58,1146.16 C706.44,1145.74 705.57,1146.50 706.49,1147.98 ZM 645.53 1164.78 C644.78,1165.92 644.48,1167.59 644.58,1169.17 C644.43,1168.25 644.45,1167.40 644.61,1166.63 C644.80,1166.02 645.11,1165.39 645.53,1164.78 ZM 810.00 1158.15 C810.93,1158.05 811.10,1157.96 810.50,1157.88 C811.75,1157.95 812.12,1158.02 811.50,1158.08 C811.06,1158.12 810.29,1158.17 809.20,1158.22 C809.51,1158.20 809.78,1158.17 810.00,1158.15 ZM 627.28 1135.52 C627.30,1135.91 628.02,1136.48 629.10,1136.92 C627.31,1136.20 626.80,1135.70 627.28,1135.52 ZM 641.06 1164.00 C640.93,1164.61 640.74,1165.16 640.48,1165.64 C640.72,1165.17 640.92,1164.62 641.06,1164.00 ZM 610.30 1124.00 L 610.31 1123.99 L 612.79 1124.00 ZM 624.89 1162.91 C624.60,1162.95 624.31,1162.97 624.05,1162.98 C624.29,1162.97 624.54,1162.95 624.80,1162.91 C624.83,1162.91 624.86,1162.91 624.89,1162.91 ZM 627.89 1161.96 C627.67,1162.08 627.43,1162.19 627.19,1162.29 C627.37,1162.21 627.55,1162.12 627.74,1162.03 Z" fill="rgb(163,49,29)"/>
<path d="M 789.75 751.87 C790.00,750.55 789.32,749.89 787.08,748.07 C785.28,746.60 781.71,744.36 779.15,743.10 C776.59,741.83 773.79,740.44 772.93,740.00 C769.39,738.21 754.68,735.91 748.58,736.19 C743.49,736.43 742.35,736.56 741.77,738.07 C742.07,735.68 742.62,733.54 743.41,732.00 C743.64,731.57 743.87,731.14 744.12,730.72 C743.60,732.61 746.29,732.87 753.56,732.91 C759.39,732.94 764.89,733.56 767.64,734.49 C770.12,735.34 772.53,735.79 773.00,735.50 C773.48,735.21 774.14,735.41 774.47,735.96 C774.81,736.50 777.11,737.84 779.59,738.94 C782.07,740.03 785.54,742.06 787.30,743.45 L 790.50 745.96 L 790.83 742.23 C790.88,741.61 790.89,740.86 790.85,740.06 C791.14,744.12 790.77,748.62 789.75,751.87 ZM 795.00 1083.11 C795.42,1071.12 795.78,1068.54 797.17,1067.66 C799.59,1066.14 801.48,1068.12 803.50,1074.28 C804.06,1076.01 804.70,1077.65 805.40,1079.22 C804.94,1078.37 804.50,1077.52 804.09,1076.70 C800.98,1070.40 799.28,1067.99 798.12,1068.21 C796.73,1068.48 796.46,1070.59 796.22,1082.97 C796.03,1092.99 795.57,1097.66 794.72,1098.19 C793.41,1099.03 765.79,1099.10 762.55,1098.27 C760.95,1097.86 758.42,1096.46 755.97,1094.73 C757.48,1095.63 759.06,1096.24 760.66,1096.50 C766.72,1097.50 766.79,1097.50 781.00,1097.50 L 794.50 1097.50 ZM 703.33 64.97 C694.52,71.58 688.03,82.47 688.01,91.75 C688.00,93.98 688.13,94.00 702.50,94.00 C710.47,94.00 717.00,94.34 717.00,94.76 C717.00,95.17 714.19,96.60 710.75,97.93 C706.09,99.73 702.97,101.89 698.50,106.42 C697.22,107.72 696.11,108.87 695.14,109.98 C698.03,106.32 701.80,102.77 705.87,99.99 C708.69,98.07 711.00,96.16 711.00,95.75 C711.00,95.34 705.54,95.00 698.86,95.00 L 686.72 95.00 L 687.31 90.00 C688.05,83.75 693.43,73.94 699.20,68.30 C700.24,67.28 701.72,66.11 703.33,64.97 ZM 632.00 1150.83 C632.00,1150.18 631.28,1148.86 630.40,1147.89 C628.22,1145.48 629.43,1144.00 633.59,1144.00 C637.84,1144.00 638.84,1145.97 636.34,1149.42 C634.42,1152.05 632.00,1152.84 632.00,1150.83 ZM 738.80 1062.30 C740.09,1057.74 742.32,1053.40 745.29,1050.02 L 748.35 1046.53 L 744.92 1045.68 C738.33,1044.04 736.75,1041.97 738.80,1037.62 C739.13,1036.93 739.69,1035.38 740.29,1033.58 C739.86,1035.53 739.61,1037.48 739.58,1039.36 L 739.50 1043.50 L 744.00 1043.78 C751.52,1044.25 751.66,1044.58 746.73,1049.86 C742.90,1053.96 740.27,1058.06 738.80,1062.30 ZM 833.94 132.00 L 820.00 132.00 C810.67,132.00 805.00,131.62 805.00,131.00 C805.00,130.45 805.63,130.00 806.41,130.00 C807.19,130.00 810.37,129.02 813.50,127.83 C820.46,125.16 826.45,119.53 830.41,111.97 C826.90,118.69 822.03,123.65 814.95,127.78 L 809.50 130.96 L 820.67 130.98 C826.81,130.99 832.55,131.27 833.42,131.61 C833.62,131.68 833.79,131.80 833.94,132.00 ZM 775.80 242.93 C775.96,243.19 776.00,243.53 776.00,243.96 C776.00,246.27 773.21,248.00 769.48,248.00 C768.49,248.00 767.84,248.19 767.50,248.48 C767.51,246.91 768.35,246.39 771.49,246.00 C774.25,245.65 775.58,244.96 775.81,243.75 C775.88,243.42 775.89,243.15 775.80,242.93 ZM 751.73 1091.29 C751.40,1090.98 751.09,1090.67 750.80,1090.36 C746.50,1085.80 744.03,1079.18 743.73,1072.68 C744.11,1079.68 747.32,1086.68 751.73,1091.29 ZM 690.39 118.03 C688.76,123.22 688.48,130.66 688.22,145.39 C688.55,126.35 688.86,122.10 690.39,118.03 ZM 754.91 720.50 C758.78,718.66 765.13,718.08 770.55,718.77 C769.25,718.65 767.77,718.61 766.00,718.61 C761.49,718.61 757.97,719.17 754.91,720.50 ZM 789.06 732.36 C787.28,728.88 783.88,725.04 780.30,722.44 C784.03,725.07 787.32,728.77 789.06,732.36 ZM 749.62 1055.21 C752.30,1052.12 755.88,1049.58 761.04,1046.98 C756.18,1049.44 752.39,1052.14 749.62,1055.21 ZM 742.92 1025.86 C745.27,1020.55 749.03,1015.89 753.01,1013.55 C749.05,1015.88 745.41,1020.51 742.92,1025.86 ZM 742.30 750.39 C742.77,752.11 743.36,753.74 744.04,755.07 C744.17,755.33 744.32,755.60 744.48,755.87 C744.21,755.44 743.96,755.01 743.74,754.59 C743.14,753.45 742.66,752.00 742.30,750.39 ZM 784.03 760.32 C781.50,762.86 778.55,765.13 776.01,766.34 C778.40,765.19 781.45,762.84 784.03,760.32 ZM 826.58 1094.03 C826.84,1088.89 826.94,1077.95 826.82,1065.38 C826.95,1078.58 826.86,1089.05 826.58,1094.03 ZM 768.37 250.28 C768.88,250.53 769.56,250.72 770.39,250.82 C772.02,251.02 772.87,251.88 773.00,252.83 C772.86,251.87 771.98,251.01 770.31,250.82 C769.45,250.72 768.82,250.55 768.37,250.28 ZM 823.55 1097.18 C824.80,1097.55 825.76,1097.59 826.21,1097.19 C826.21,1097.19 826.20,1097.20 826.20,1097.20 C825.77,1097.63 824.81,1097.58 823.55,1097.18 ZM 775.42 766.60 C773.18,767.54 769.09,767.97 765.14,767.91 C769.07,767.97 773.14,767.53 775.42,766.60 ZM 765.14 767.91 C761.68,767.85 758.33,767.41 756.42,766.58 C758.32,767.41 761.68,767.85 765.14,767.91 Z" fill="rgb(158,221,221)"/>
<path d="M 690.72 1160.30 C694.41,1160.21 698.35,1160.12 702.48,1160.04 C740.01,1159.84 798.98,1158.97 809.20,1158.22 C810.29,1158.17 811.06,1158.12 811.50,1158.08 C812.12,1158.02 811.75,1157.95 810.50,1157.88 C808.67,1157.62 799.54,1157.43 783.27,1157.31 L 783.26 1157.31 C770.23,1157.14 753.55,1156.98 735.00,1156.87 C696.76,1156.64 663.60,1156.19 652.87,1155.80 L 652.79 1155.79 C663.74,1156.17 698.54,1156.57 738.75,1156.74 C786.74,1156.94 826.00,1157.48 826.00,1157.92 C826.00,1159.71 815.81,1159.98 748.50,1159.98 C724.09,1159.98 705.22,1160.07 690.72,1160.30 ZM 706.49 1147.98 C705.57,1146.50 706.44,1145.74 708.58,1146.16 C710.14,1146.47 710.16,1146.63 708.74,1147.80 C707.62,1148.73 706.98,1148.78 706.49,1147.98 ZM 653.49 1162.03 C648.90,1162.65 646.62,1163.43 645.79,1164.43 C645.80,1164.41 645.81,1164.40 645.82,1164.39 C646.88,1163.12 648.06,1162.56 653.49,1162.03 Z" fill="rgb(193,203,26)"/>
<path d="M 645.53 1164.78 L 645.71 1164.53 L 645.71 1164.53 C645.73,1164.49 645.76,1164.46 645.79,1164.43 C646.62,1163.43 648.90,1162.65 653.49,1162.03 C656.24,1161.76 660.08,1161.50 665.55,1161.16 C669.86,1160.89 679.01,1160.58 690.72,1160.30 C705.22,1160.07 724.09,1159.98 748.50,1159.98 C815.81,1159.98 826.00,1159.71 826.00,1157.92 C826.00,1157.48 786.74,1156.94 738.75,1156.74 C698.54,1156.57 663.74,1156.17 652.79,1155.79 C652.65,1155.77 652.50,1155.75 652.34,1155.74 C650.48,1155.53 648.69,1155.04 647.70,1154.53 C646.64,1153.26 646.87,1151.35 648.54,1149.96 C649.39,1149.26 649.94,1147.97 649.76,1147.09 C649.56,1146.12 650.81,1144.71 652.96,1143.47 C653.67,1143.06 654.27,1142.68 654.75,1142.30 C656.07,1141.35 656.95,1140.36 656.75,1139.74 C656.36,1138.58 653.86,1136.83 651.32,1135.58 C649.56,1134.35 647.89,1132.72 647.29,1131.58 C646.54,1130.16 645.16,1129.00 644.22,1128.99 C643.27,1128.99 641.15,1127.88 639.50,1126.53 L 636.50 1124.07 L 828.50 1124.50 L 828.77 1147.88 C828.96,1164.28 828.70,1171.66 827.90,1172.62 C826.94,1173.77 811.97,1174.00 737.13,1173.98 C687.83,1173.98 646.99,1173.64 646.38,1173.23 C645.76,1172.83 644.98,1171.15 644.64,1169.50 L 644.59 1169.17 C644.57,1168.96 644.56,1168.74 644.56,1168.52 L 644.56 1168.52 C644.57,1167.15 644.88,1165.77 645.53,1164.78 ZM 628.84 1161.43 C628.92,1161.39 628.99,1161.35 629.06,1161.30 C629.32,1161.15 629.56,1161.00 629.79,1160.86 C632.44,1159.78 636.72,1159.74 637.52,1161.03 C637.87,1161.59 638.90,1161.93 639.83,1161.78 C640.71,1161.63 641.15,1161.88 641.22,1162.60 C641.20,1163.10 641.15,1163.56 641.06,1164.00 C640.92,1164.62 640.72,1165.17 640.48,1165.64 C639.67,1167.15 638.25,1168.00 636.38,1168.00 C634.93,1168.00 634.00,1168.59 634.00,1169.50 C634.00,1170.42 634.94,1171.00 636.44,1171.00 C639.36,1171.00 640.63,1172.54 638.41,1173.40 C638.22,1173.47 637.88,1173.53 637.41,1173.59 C631.57,1174.21 611.59,1174.03 610.37,1173.23 C609.60,1172.73 609.08,1166.99 608.88,1157.26 C608.87,1154.69 608.87,1151.70 608.88,1148.18 C608.91,1132.77 609.29,1124.40 609.96,1124.18 C610.08,1124.14 610.20,1124.08 610.30,1124.00 L 612.79 1124.00 L 627.63 1124.03 C633.96,1124.14 636.00,1124.49 636.00,1125.30 C636.00,1126.02 635.49,1127.11 634.86,1127.74 C634.51,1128.09 634.33,1128.33 634.34,1128.46 C629.86,1128.15 625.26,1128.54 623.54,1129.97 C622.05,1131.21 622.04,1131.47 623.48,1132.91 C624.16,1133.60 625.94,1134.53 627.80,1135.21 C627.60,1135.19 627.45,1135.22 627.37,1135.30 C627.30,1135.36 627.28,1135.44 627.28,1135.52 C626.80,1135.70 627.31,1136.20 629.10,1136.92 C631.49,1137.87 631.49,1137.87 629.25,1137.94 C627.14,1138.00 627.00,1138.43 627.00,1145.00 C627.00,1151.74 626.91,1152.00 624.58,1152.00 C623.24,1152.00 620.82,1153.12 619.18,1154.50 C617.55,1155.88 615.38,1157.01 614.36,1157.02 C613.34,1157.02 611.90,1157.41 611.17,1157.88 C609.47,1158.95 610.90,1159.56 617.37,1160.53 C619.92,1160.91 622.00,1161.63 622.00,1162.11 C622.00,1162.77 622.86,1163.04 624.05,1162.98 L 624.05 1162.98 C624.32,1162.97 624.60,1162.95 624.89,1162.91 C625.50,1162.92 626.26,1162.71 627.19,1162.29 C627.43,1162.19 627.67,1162.08 627.89,1161.96 C628.18,1161.81 628.50,1161.63 628.84,1161.43 ZM 721.23 1151.28 C722.79,1149.87 723.02,1149.88 723.59,1151.36 C724.07,1152.61 725.56,1153.00 729.91,1153.00 C733.04,1153.00 736.13,1152.47 736.78,1151.82 C737.69,1150.91 738.50,1150.93 740.31,1151.90 C743.47,1153.59 749.04,1152.93 750.40,1150.70 C751.27,1149.27 751.14,1148.69 749.75,1147.90 C747.42,1146.57 747.21,1136.52 749.50,1135.64 C750.33,1135.32 751.00,1134.39 751.00,1133.58 C751.00,1132.33 748.74,1132.10 737.00,1132.13 C725.46,1132.16 723.00,1132.42 723.00,1133.62 C723.00,1134.41 723.67,1135.32 724.50,1135.64 C725.59,1136.06 726.00,1137.78 726.00,1141.99 C726.00,1147.12 725.75,1147.83 723.77,1148.35 C719.89,1149.37 717.64,1146.81 715.67,1139.14 L 713.84 1132.00 L 701.22 1132.00 L 700.56 1135.54 C699.55,1140.91 696.40,1147.63 694.55,1148.34 C693.28,1148.83 693.14,1149.40 693.94,1150.89 C694.87,1152.63 696.16,1152.82 707.24,1152.82 C716.91,1152.83 719.86,1152.50 721.23,1151.28 ZM 785.65 1151.46 C786.18,1150.09 786.50,1150.10 788.67,1151.52 C792.10,1153.77 799.36,1153.17 799.84,1150.60 C800.04,1149.55 799.48,1148.29 798.60,1147.80 C796.40,1146.57 796.32,1136.48 798.50,1135.64 C799.33,1135.32 800.00,1134.37 800.00,1133.53 C800.00,1132.30 798.63,1132.00 793.06,1132.00 C789.14,1132.00 785.83,1132.47 785.45,1133.09 C784.96,1133.87 784.47,1133.87 783.69,1133.09 C783.09,1132.49 780.22,1132.00 777.30,1132.00 C773.21,1132.00 772.00,1132.35 772.00,1133.53 C772.00,1134.37 772.67,1135.32 773.50,1135.64 C774.58,1136.05 775.00,1137.74 775.00,1141.64 C775.00,1145.54 774.58,1147.22 773.50,1147.64 C771.68,1148.34 771.51,1151.63 773.25,1152.34 C773.94,1152.62 776.88,1152.88 779.78,1152.92 C783.66,1152.98 785.22,1152.59 785.65,1151.46 ZM 686.04 1151.46 C687.00,1150.29 687.03,1149.63 686.16,1148.76 C684.31,1146.91 684.80,1146.00 687.67,1146.00 C691.62,1146.00 694.00,1143.34 694.00,1138.93 C694.00,1132.05 693.92,1132.00 682.39,1132.00 C673.73,1132.00 672.00,1132.25 672.00,1133.53 C672.00,1134.37 672.67,1135.32 673.50,1135.64 C674.58,1136.05 675.00,1137.74 675.00,1141.64 C675.00,1145.54 674.58,1147.22 673.50,1147.64 C671.97,1148.22 671.46,1151.12 672.67,1152.33 C674.06,1153.73 684.73,1153.03 686.04,1151.46 ZM 817.40 1150.70 C818.27,1149.27 818.14,1148.69 816.75,1147.90 C814.16,1146.42 814.32,1137.93 816.98,1135.52 C819.96,1132.82 818.57,1132.00 811.00,1132.00 C803.47,1132.00 801.82,1133.01 804.96,1135.70 C807.52,1137.89 807.92,1146.71 805.50,1147.64 C803.95,1148.23 803.46,1151.13 804.71,1152.38 C805.10,1152.77 807.87,1152.96 810.86,1152.79 C814.80,1152.58 816.60,1152.01 817.40,1150.70 ZM 768.84 1150.60 C769.04,1149.55 768.48,1148.29 767.60,1147.80 C765.40,1146.57 765.32,1136.48 767.50,1135.64 C768.33,1135.32 769.00,1134.37 769.00,1133.53 C769.00,1132.30 767.62,1132.00 762.00,1132.00 C756.38,1132.00 755.00,1132.30 755.00,1133.53 C755.00,1134.37 755.67,1135.32 756.50,1135.64 C757.58,1136.05 758.00,1137.74 758.00,1141.64 C758.00,1145.54 757.58,1147.22 756.50,1147.64 C754.95,1148.23 754.46,1151.13 755.71,1152.38 C756.10,1152.77 759.13,1152.95 762.45,1152.79 C767.45,1152.55 768.54,1152.18 768.84,1150.60 ZM 642.57 1130.04 C640.73,1129.30 637.97,1128.77 635.09,1128.52 C635.24,1128.48 635.41,1128.44 635.61,1128.39 C636.93,1128.05 640.25,1128.97 642.57,1130.04 ZM 631.69 1136.17 C637.35,1136.91 643.82,1135.15 644.75,1132.29 C644.90,1131.80 644.68,1131.34 644.17,1130.92 C644.69,1131.27 645.00,1131.61 645.00,1131.89 C645.00,1134.74 636.72,1137.35 631.69,1136.17 Z" fill="rgb(243,231,28)"/>
<path d="M 727.82 1142.08 C728.24,1131.90 729.56,1131.16 735.99,1137.49 C738.53,1140.00 740.93,1141.74 741.31,1141.36 C741.69,1140.98 742.00,1139.17 742.00,1137.33 C742.00,1134.67 742.40,1134.00 744.00,1134.00 C745.83,1134.00 746.00,1134.67 746.00,1142.00 C746.00,1149.83 745.95,1150.00 743.54,1150.00 C741.96,1150.00 739.77,1148.58 737.40,1146.03 C735.38,1143.84 733.34,1142.29 732.86,1142.58 C732.39,1142.88 732.00,1144.67 732.00,1146.56 C732.00,1149.46 731.65,1150.00 729.75,1150.00 C727.58,1150.00 727.51,1149.73 727.82,1142.08 ZM 777.00 1141.83 C777.33,1136.43 777.94,1133.51 778.79,1133.23 C779.49,1133.00 782.13,1134.87 784.65,1137.39 C787.17,1139.91 789.68,1141.70 790.21,1141.37 C790.75,1141.04 791.01,1139.24 790.80,1137.38 C790.45,1134.41 790.68,1134.00 792.70,1134.00 C794.91,1134.00 795.00,1134.32 795.00,1142.00 C795.00,1149.85 794.95,1150.00 792.52,1150.00 C790.97,1150.00 788.87,1148.70 786.86,1146.50 C785.11,1144.57 783.08,1143.00 782.34,1143.00 C781.48,1143.00 781.00,1144.24 781.00,1146.50 C781.00,1149.46 780.65,1150.00 778.75,1150.00 C776.56,1150.00 776.51,1149.79 777.00,1141.83 ZM 698.01 1149.25 C698.04,1147.47 702.16,1135.52 703.15,1134.32 C704.60,1132.57 709.49,1132.63 711.28,1134.42 C712.06,1135.20 713.25,1138.01 713.93,1140.67 C714.61,1143.33 715.57,1146.51 716.06,1147.75 C716.88,1149.82 716.68,1150.00 713.57,1150.00 C710.85,1150.00 710.27,1149.66 710.62,1148.25 C711.21,1145.90 708.75,1137.75 707.31,1137.27 C706.68,1137.06 705.95,1137.70 705.68,1138.69 C702.72,1149.70 702.57,1150.00 700.28,1150.00 C699.03,1150.00 698.01,1149.66 698.01,1149.25 ZM 642.57 1130.04 C643.20,1130.33 643.75,1130.63 644.17,1130.92 C644.68,1131.34 644.90,1131.80 644.75,1132.29 C643.82,1135.15 637.35,1136.91 631.69,1136.17 C631.58,1136.15 631.47,1136.12 631.36,1136.09 C630.36,1135.81 629.51,1135.63 628.84,1135.54 C628.43,1135.35 628.07,1135.24 627.80,1135.21 C625.94,1134.53 624.16,1133.60 623.48,1132.91 C622.04,1131.47 622.05,1131.21 623.54,1129.97 C625.26,1128.54 629.86,1128.15 634.34,1128.46 C634.35,1128.60 634.59,1128.62 635.09,1128.52 C637.97,1128.77 640.73,1129.30 642.57,1130.04 ZM 675.82 1142.08 C676.07,1136.14 676.53,1134.01 677.66,1133.58 C680.09,1132.64 681.00,1133.85 681.00,1138.00 C681.00,1140.14 681.47,1142.17 682.05,1142.53 C682.77,1142.98 682.74,1143.60 681.97,1144.54 C681.34,1145.29 681.13,1146.83 681.48,1147.95 C682.05,1149.73 681.71,1150.00 678.82,1150.00 L 675.50 1150.00 ZM 759.21 1141.75 C759.47,1134.26 759.69,1133.50 761.50,1133.50 C763.30,1133.50 763.55,1134.33 764.00,1141.75 L 764.50 1150.00 L 761.71 1150.00 L 758.92 1150.00 ZM 808.21 1141.75 C808.47,1134.26 808.69,1133.50 810.50,1133.50 C812.30,1133.50 812.55,1134.33 813.00,1141.75 L 813.50 1150.00 L 810.71 1150.00 L 807.92 1150.00 ZM 686.89 1143.25 C686.84,1142.84 686.72,1140.59 686.64,1138.25 C686.52,1134.47 686.75,1134.00 688.75,1134.00 C690.74,1134.00 691.00,1134.50 691.00,1138.39 C691.00,1141.48 690.53,1142.97 689.42,1143.39 C687.37,1144.18 687.02,1144.16 686.89,1143.25 ZM 642.00 1153.46 C642.00,1151.82 645.57,1147.00 646.78,1147.00 C647.75,1147.00 647.53,1147.85 646.02,1149.97 C643.85,1153.02 642.00,1154.63 642.00,1153.46 Z" fill="rgb(224,31,35)"/>
<path d="M 760.50 807.95 C743.81,806.41 729.61,799.12 717.71,785.97 C712.52,780.24 706.21,769.08 704.14,762.00 C697.31,738.64 703.34,714.88 720.50,697.53 C726.02,691.96 729.82,688.96 734.79,686.35 C735.18,686.14 735.59,685.94 736.00,685.73 C741.62,682.95 747.60,680.89 753.48,679.63 C757.45,678.93 761.61,678.59 766.00,678.59 C773.12,678.59 779.72,679.53 785.86,681.44 C786.39,681.63 786.95,681.82 787.50,681.99 C787.67,682.04 787.83,682.09 788.00,682.15 C790.74,683.12 793.39,684.29 795.96,685.66 C799.86,687.80 803.81,690.53 807.43,693.62 L 807.43 693.62 C808.66,694.68 809.86,695.80 811.05,696.99 C815.34,701.26 818.62,705.29 821.33,709.79 L 821.34 709.80 C823.83,713.95 825.86,718.52 827.73,724.00 C830.26,731.40 830.30,731.98 830.75,768.78 C831.09,797.25 830.91,806.40 829.98,807.53 C828.94,808.77 824.08,808.98 798.63,808.85 C782.06,808.76 764.90,808.36 760.50,807.95 ZM 714.84 285.11 C707.21,282.63 702.96,279.86 697.54,273.83 C692.67,268.42 689.77,262.84 688.53,256.47 C687.36,250.51 687.83,207.36 689.11,202.60 C691.71,192.93 698.84,184.21 708.14,179.33 C713.29,176.63 714.16,176.51 730.21,176.18 L 746.92 175.83 L 747.60 178.54 C748.61,182.57 747.36,198.92 745.68,203.50 C744.88,205.70 742.18,211.77 739.68,217.00 C735.29,226.18 734.63,228.07 734.88,230.75 C734.97,231.72 741.01,232.00 761.38,232.00 C762.18,232.00 762.95,232.00 763.71,232.00 C782.20,232.00 788.41,232.01 789.43,229.70 C789.95,228.54 789.14,226.79 787.93,224.15 C787.83,223.93 787.73,223.71 787.62,223.49 C786.22,220.41 784.15,216.62 783.03,215.05 C781.91,213.48 780.99,211.59 780.98,210.85 C780.97,210.11 779.69,207.62 778.14,205.33 C775.78,201.86 775.20,199.70 774.64,192.48 C774.24,187.23 774.40,182.24 775.05,179.82 L 776.12 175.83 L 792.81 176.17 C809.14,176.49 809.61,176.56 814.84,179.46 C821.32,183.05 827.06,188.63 830.38,194.57 C833.04,199.32 835.51,209.22 834.63,211.53 C834.21,212.61 831.25,213.00 821.79,213.22 L 809.50 213.50 L 814.50 216.17 C833.21,226.14 840.22,248.96 830.22,267.33 C826.65,273.90 818.24,281.36 811.25,284.17 C805.60,286.44 804.79,286.48 763.00,286.71 C724.04,286.93 720.03,286.80 714.84,285.11 ZM 823.77 773.57 C823.91,758.20 823.65,745.25 823.19,744.79 C822.76,744.36 819.97,745.62 816.77,747.64 C820.30,745.26 822.88,743.14 822.73,742.70 C822.57,742.21 816.60,738.10 809.47,733.59 C807.30,732.22 804.66,730.54 801.82,728.73 C819.36,739.84 822.74,741.64 823.39,740.99 C824.38,740.02 822.68,730.07 820.35,723.22 C815.11,707.77 800.68,693.62 784.33,687.91 C775.69,684.89 760.73,684.24 752.20,686.51 C730.64,692.25 714.86,708.03 709.63,729.06 C708.73,732.67 708.00,737.11 708.00,738.92 C708.00,742.06 708.37,742.59 712.65,739.97 C709.02,742.45 709.39,742.84 710.86,744.30 C711.85,745.29 722.05,752.15 734.34,760.10 C723.39,753.21 713.38,746.67 711.44,744.89 C708.16,741.90 707.68,742.59 708.37,749.25 C711.14,775.85 732.55,798.10 758.50,801.34 C760.15,801.55 775.45,801.67 792.50,801.61 L 823.50 801.50 ZM 689.14 169.08 C688.11,168.45 687.92,163.45 688.22,145.39 C688.48,130.66 688.76,123.22 690.39,118.03 C690.45,117.88 690.50,117.74 690.56,117.60 C691.53,115.15 693.12,112.54 695.14,109.98 C696.11,108.87 697.22,107.72 698.50,106.42 C702.97,101.89 706.09,99.73 710.75,97.93 C714.19,96.60 717.00,95.17 717.00,94.76 C717.00,94.34 710.47,94.00 702.50,94.00 C688.13,94.00 688.00,93.98 688.01,91.75 C688.03,82.47 694.52,71.58 703.33,64.97 C705.39,63.53 707.65,62.16 709.50,61.30 L 715.50 58.50 L 759.50 58.20 C804.59,57.89 806.95,58.04 814.88,61.87 C821.06,64.85 827.78,71.80 831.20,78.76 C834.18,84.81 834.46,86.17 834.41,94.51 C834.36,102.56 833.99,104.43 831.28,110.22 C831.00,110.82 830.71,111.40 830.41,111.97 C826.45,119.53 820.46,125.16 813.50,127.83 C810.37,129.02 807.19,130.00 806.41,130.00 C805.63,130.00 805.00,130.45 805.00,131.00 C805.00,131.62 810.67,132.00 820.00,132.00 L 833.94 132.00 C834.84,133.16 835.00,137.03 835.00,150.48 L 835.00 168.75 L 831.88 169.38 C826.95,170.36 781.66,170.07 780.04,169.05 C778.78,168.25 778.87,167.25 780.70,161.81 C781.87,158.34 783.14,153.48 783.53,151.00 C783.92,148.52 785.28,143.57 786.54,140.00 C789.37,132.01 791.67,122.31 792.48,114.95 C793.01,110.16 792.81,109.14 791.05,107.54 C789.92,106.52 789.00,104.72 789.00,103.54 C789.00,100.64 784.16,93.21 779.76,89.36 C775.03,85.21 769.93,83.56 762.00,83.58 C747.62,83.64 736.00,94.66 736.00,108.25 C736.00,111.43 735.45,114.90 734.78,115.97 C733.83,117.50 733.83,118.64 734.78,121.28 C735.45,123.13 736.00,125.29 736.01,126.07 C736.01,126.86 736.65,128.72 737.43,130.22 C738.21,131.71 739.14,135.54 739.49,138.72 C740.52,148.08 742.98,158.19 745.17,162.08 C746.29,164.07 747.04,166.56 746.84,167.60 C746.49,169.41 745.09,169.51 718.46,169.69 C703.05,169.80 689.85,169.53 689.14,169.08 ZM 741.56 909.78 C740.21,907.85 740.00,901.85 740.00,864.47 C740.00,830.93 740.28,820.99 741.29,819.62 C742.48,817.99 745.17,817.89 779.04,818.18 L 815.50 818.50 L 819.96 821.00 C828.61,825.84 834.00,838.19 831.87,848.25 C830.62,854.14 827.93,859.98 825.57,861.94 C823.48,863.67 823.59,865.32 825.93,867.44 C830.70,871.76 833.73,883.77 832.00,891.51 C829.49,902.70 824.74,908.65 816.50,910.90 C813.97,911.59 799.77,911.99 777.81,911.99 L 743.11 912.00 ZM 741.57 1006.43 C740.19,1005.05 740.00,999.54 740.00,961.00 C740.00,922.46 740.19,916.95 741.57,915.57 C742.93,914.21 747.33,914.00 774.53,914.00 C803.38,914.00 806.35,914.16 811.21,915.98 C825.59,921.37 835.08,937.03 831.96,950.25 C830.53,956.33 826.68,964.52 823.74,967.72 C821.44,970.24 822.02,970.72 828.00,971.21 L 831.50 971.50 L 831.50 988.29 C831.49,1002.07 831.23,1005.26 830.00,1006.10 C829.04,1006.76 822.33,1006.94 811.50,1006.62 C792.45,1006.05 787.53,1004.96 779.27,999.47 C776.39,997.56 773.80,996.00 773.52,996.00 C773.23,996.00 773.00,998.16 773.00,1000.80 C773.00,1003.44 772.46,1006.14 771.80,1006.80 C770.98,1007.62 766.22,1008.00 756.87,1008.00 C745.72,1008.00 742.85,1007.70 741.57,1006.43 ZM 756.00 1101.42 C746.23,1095.87 740.52,1088.00 738.08,1076.69 C737.12,1072.21 737.43,1067.13 738.80,1062.30 C740.27,1058.06 742.90,1053.96 746.73,1049.86 C751.66,1044.58 751.52,1044.25 744.00,1043.78 L 739.50 1043.50 L 739.58 1039.36 C739.61,1037.48 739.86,1035.53 740.29,1033.58 C740.70,1032.34 741.13,1030.98 741.52,1029.67 C741.90,1028.38 742.37,1027.10 742.92,1025.86 C745.40,1020.53 749.02,1015.91 752.97,1013.57 L 753.01 1013.55 L 753.01 1013.55 C756.23,1011.66 758.45,1011.47 781.50,1011.17 C808.94,1010.80 814.06,1011.41 820.50,1015.83 C825.57,1019.31 830.38,1027.27 831.85,1034.63 C833.05,1040.59 833.52,1099.48 832.39,1102.42 C831.59,1104.51 827.07,1104.45 820.68,1102.25 C817.19,1101.05 813.44,1098.49 808.79,1094.13 L 802.00 1087.76 L 802.00 1094.68 C802.00,1098.73 801.50,1102.10 800.80,1102.80 C799.95,1103.65 793.94,1104.00 780.05,1103.99 C760.94,1103.98 760.40,1103.92 756.00,1101.42 ZM 816.27 904.94 C823.41,902.96 828.24,891.03 826.05,880.80 C824.49,873.53 820.94,869.17 815.92,868.37 C809.23,867.30 808.70,863.35 815.00,861.52 C819.36,860.25 821.91,858.09 824.09,853.83 C829.09,844.02 825.65,830.72 816.95,826.25 C812.68,824.05 811.83,824.00 779.79,824.00 L 747.00 824.00 L 747.00 864.33 C747.00,886.52 747.30,904.97 747.67,905.33 C748.79,906.45 812.13,906.09 816.27,904.94 ZM 767.00 989.00 C767.49,976.64 767.53,976.50 769.88,976.50 C771.88,976.50 772.51,977.34 773.88,981.77 C778.32,996.22 789.47,1001.44 814.50,1000.79 L 825.50 1000.50 L 826.06 977.00 L 820.97 977.00 C815.28,977.00 812.00,975.69 812.00,973.42 C812.00,972.59 813.97,969.80 816.38,967.21 C821.56,961.63 825.58,954.13 826.50,948.29 C827.94,939.13 822.37,928.65 813.18,923.25 L 808.50 920.50 L 777.91 920.20 L 747.32 919.90 L 746.66 940.20 C745.83,965.86 745.81,998.34 746.62,1000.45 C747.14,1001.82 748.75,1002.02 756.87,1001.78 L 766.50 1001.50 ZM 749.62 1055.21 C745.52,1059.74 743.63,1065.05 743.69,1071.50 C743.69,1071.89 743.70,1072.28 743.73,1072.68 C744.03,1079.18 746.50,1085.80 750.80,1090.36 C751.09,1090.67 751.40,1090.98 751.73,1091.29 C753.05,1092.67 754.48,1093.84 755.97,1094.73 C758.42,1096.46 760.95,1097.86 762.55,1098.27 C765.79,1099.10 793.41,1099.03 794.72,1098.19 C795.57,1097.66 796.03,1092.99 796.22,1082.97 C796.46,1070.59 796.73,1068.48 798.12,1068.21 C799.28,1067.99 800.98,1070.40 804.09,1076.70 C804.50,1077.52 804.94,1078.37 805.40,1079.22 C807.62,1084.14 810.51,1088.23 814.03,1091.41 C817.06,1094.14 820.93,1096.39 823.55,1097.18 C824.81,1097.58 825.77,1097.63 826.20,1097.20 C826.20,1097.20 826.21,1097.19 826.21,1097.19 C826.22,1097.18 826.23,1097.17 826.24,1097.16 C826.38,1097.02 826.49,1095.92 826.58,1094.03 C826.59,1093.99 826.59,1093.95 826.59,1093.91 C826.86,1088.88 826.95,1078.48 826.82,1065.38 L 826.50 1034.50 L 823.74 1028.88 C821.91,1025.15 819.59,1022.30 816.87,1020.41 L 812.75 1017.56 L 788.63 1016.67 C761.16,1015.66 757.48,1016.15 752.45,1021.48 C750.75,1023.29 748.34,1027.55 747.10,1030.94 C743.99,1039.48 744.56,1040.00 757.12,1040.00 C766.31,1040.00 767.00,1040.14 767.00,1041.99 C767.00,1043.41 765.31,1044.82 761.04,1046.98 C755.88,1049.58 752.30,1052.12 749.62,1055.21 ZM 780.00 262.50 C780.68,261.67 782.71,261.00 784.50,261.00 C786.29,261.00 788.32,261.67 789.00,262.50 C790.22,263.97 794.11,264.55 795.24,263.43 C795.79,262.88 790.73,247.32 788.82,243.69 C788.12,242.36 786.93,241.97 784.34,242.19 C780.81,242.50 780.79,242.53 777.40,252.41 C775.53,257.86 774.00,262.69 774.00,263.16 C774.00,264.60 778.69,264.08 780.00,262.50 ZM 737.00 261.58 C737.00,257.87 738.03,256.00 740.07,256.00 C742.00,256.00 744.41,252.74 743.30,251.63 C742.95,251.28 741.62,251.00 740.33,251.00 C738.67,251.00 738.00,250.43 738.00,249.00 C738.00,247.38 738.67,247.00 741.46,247.00 C744.80,247.00 747.88,244.21 746.30,242.63 C745.95,242.28 742.37,242.00 738.33,242.00 L 731.00 242.00 L 731.00 252.33 C731.00,258.02 731.30,262.97 731.67,263.33 C732.03,263.70 733.38,264.00 734.67,264.00 C736.47,264.00 737.00,263.45 737.00,261.58 ZM 766.81 259.81 C767.07,256.64 767.49,256.08 769.81,255.81 C772.08,255.55 773.19,254.10 773.00,252.83 L 773.00 252.83 C772.87,251.87 772.02,251.02 770.39,250.82 C769.56,250.72 768.88,250.53 768.37,250.28 C767.76,249.90 767.50,249.34 767.50,248.50 L 767.50 248.48 C767.84,248.19 768.49,248.00 769.48,248.00 C773.21,248.00 776.00,246.27 776.00,243.96 C776.00,243.53 775.96,243.19 775.80,242.93 C775.47,242.13 773.81,242.00 768.57,242.00 L 761.00 242.00 L 761.00 252.33 C761.00,258.02 761.32,262.99 761.71,263.38 C762.10,263.77 763.34,263.95 764.46,263.79 C766.02,263.57 766.57,262.64 766.81,259.81 ZM 755.50 242.50 L 749.50 242.50 L 749.21 251.92 C748.86,263.27 749.15,264.23 752.74,263.82 L 755.50 263.50 ZM 718.58 736.14 C727.41,730.39 736.85,724.39 744.97,719.35 C735.27,725.53 723.76,732.85 718.58,736.14 ZM 768.34 778.38 C770.18,777.59 773.28,775.76 779.78,771.61 C777.34,773.19 775.36,774.47 774.21,775.22 C772.19,776.54 769.98,777.71 768.34,778.38 ZM 794.35 762.19 C800.99,757.88 809.04,752.66 813.69,749.65 C809.24,752.56 801.44,757.62 794.65,762.00 ZM 766.06 778.93 C766.49,778.93 766.93,778.87 767.49,778.70 C766.98,778.87 766.55,778.97 766.26,778.97 C766.22,778.97 766.15,778.96 766.06,778.93 Z" fill="rgb(249,253,253)"/>
<path d="M 738.17 762.57 C724.24,753.62 711.95,745.39 710.86,744.30 C708.87,742.32 708.89,742.30 718.16,736.41 C723.28,733.16 735.76,725.21 745.92,718.75 C756.07,712.29 765.14,707.00 766.08,707.00 C767.02,707.00 774.25,711.13 782.15,716.19 C790.04,721.24 802.34,729.07 809.47,733.59 C816.60,738.10 822.57,742.21 822.73,742.70 C822.90,743.20 819.59,745.83 815.39,748.55 C811.18,751.27 801.50,757.55 793.88,762.50 C770.32,777.80 768.26,779.00 765.85,778.93 C764.56,778.89 752.10,771.53 738.17,762.57 ZM 775.42 766.60 C780.29,764.57 787.03,758.12 789.13,753.50 C791.41,748.50 791.57,738.31 789.45,733.22 C787.48,728.49 782.63,723.42 777.50,720.71 C771.88,717.75 760.13,717.75 754.50,720.71 C749.81,723.18 745.95,727.11 743.41,732.00 C740.73,737.17 740.91,749.17 743.74,754.59 C746.16,759.22 751.83,764.58 756.42,766.58 C760.49,768.35 771.20,768.36 775.42,766.60 ZM 334.67 493.33 C334.30,492.97 334.00,449.54 334.00,396.83 L 334.00 300.99 L 456.75 301.25 L 579.50 301.50 L 579.80 303.60 C579.99,304.91 579.23,306.29 577.80,307.25 C576.54,308.09 572.58,311.35 569.00,314.47 C551.86,329.46 525.94,342.12 504.24,346.11 C488.67,348.96 496.62,349.50 558.83,349.76 L 620.00 350.02 L 620.00 420.81 C620.00,474.54 619.71,491.89 618.80,492.80 C617.88,493.72 584.90,494.00 476.47,494.00 C398.84,494.00 335.03,493.70 334.67,493.33 Z" fill="rgb(254,223,0)"/>
</g>
</svg>